<svg xmlns="http://www.w3.org/2000/svg" xmlns:xlink="http://www.w3.org/1999/xlink" width="68" height="63.916" viewBox="0 0 68 63.916">
  <defs>
    <filter id="icon-07" x="0" y="0" width="68" height="63.916" filterUnits="userSpaceOnUse">
      <feOffset dy="3" input="SourceAlpha"/>
      <feGaussianBlur stdDeviation="3" result="blur"/>
      <feFlood flood-opacity="0.161"/>
      <feComposite operator="in" in2="blur"/>
      <feComposite in="SourceGraphic"/>
    </filter>
  </defs>
  <g transform="matrix(1, 0, 0, 1, 0, 0)" filter="url(#icon-07)">
    <path id="icon-07-2" data-name="icon-07" d="M-5887.378,45.916a.616.616,0,0,1-.622-.622V23.68a.616.616,0,0,1,.622-.622h35.5a.625.625,0,0,1,.624.622V45.294a.617.617,0,0,1-.624.622Zm.624-1.246h34.25V24.3h-34.25Zm37.486-5.59a.616.616,0,0,1-.622-.622.616.616,0,0,1,.622-.622h3.387V17.468h-34.25v3.348a.617.617,0,0,1-.622.624.618.618,0,0,1-.624-.624V16.846a.618.618,0,0,1,.624-.624h35.507a.614.614,0,0,1,.61.624V38.458a.616.616,0,0,1-.622.622Zm6.848-6.834a.615.615,0,0,1-.622-.622.617.617,0,0,1,.622-.624h3.175V10.632h-5.689a.617.617,0,0,1-.624-.622.617.617,0,0,1,.624-.622h6.311a.624.624,0,0,1,.624.622V31.624a.617.617,0,0,1-.624.622Zm-32.32-17.879V10.01a.616.616,0,0,1,.622-.622h4.5a.616.616,0,0,1,.622.622.616.616,0,0,1-.622.622h-3.872v3.736a.617.617,0,0,1-.624.622A.616.616,0,0,1-5874.741,14.368Zm8.342-.709a.545.545,0,0,1-.548-.548V7.844a.543.543,0,0,0-.572-.548h-1.494a.552.552,0,0,1-.436-.884l4.4-5.815a.548.548,0,0,1,.883,0l4.4,5.815a.546.546,0,0,1-.436.884h-1.493a.544.544,0,0,0-.548.548V13.11a.545.545,0,0,1-.548.548Zm15.214-.6-4.4-5.813a.546.546,0,0,1,.436-.885h1.494a.545.545,0,0,0,.548-.547V.548a.544.544,0,0,1,.547-.548h3.6a.545.545,0,0,1,.548.548V5.815a.557.557,0,0,0,.572.547h1.494a.553.553,0,0,1,.436.885l-4.4,5.813a.548.548,0,0,1-.442.224A.548.548,0,0,1-5851.185,13.06Zm-8.566-2.428a.624.624,0,0,1-.622-.622.616.616,0,0,1,.622-.622h3.112a.617.617,0,0,1,.624.622.617.617,0,0,1-.624.622Z" transform="translate(5897 6)" fill="#fff"/>
  </g>
</svg>
