<svg xmlns="http://www.w3.org/2000/svg" xmlns:xlink="http://www.w3.org/1999/xlink" width="60" height="60" viewBox="0 0 60 60">
  <defs>
    <clipPath id="clip-path">
      <rect id="Rectangle_92" data-name="Rectangle 92" width="60" height="60" transform="translate(70 3824)" fill="#fff" stroke="#707070" stroke-width="1"/>
    </clipPath>
    <linearGradient id="linear-gradient" x1="0.5" x2="0.5" y2="1" gradientUnits="objectBoundingBox">
      <stop offset="0" stop-color="#00b5ff"/>
      <stop offset="1" stop-color="#0073b9"/>
    </linearGradient>
  </defs>
  <g id="icon-left-005" transform="translate(-70 -3824)" clip-path="url(#clip-path)">
    <path id="Union_25" data-name="Union 25" d="M-552.58,60A2.423,2.423,0,0,1-555,57.581V6.13a2.423,2.423,0,0,1,2.42-2.419h22.036a.741.741,0,0,1,.742.742.741.741,0,0,1-.742.742H-552.58a.937.937,0,0,0-.937.936V57.581a.937.937,0,0,0,.937.936h32.891a.937.937,0,0,0,.937-.936V21.4a.741.741,0,0,1,.742-.741.741.741,0,0,1,.741.741V57.581A2.423,2.423,0,0,1-519.689,60Zm12.884-3.625a.916.916,0,0,1-.916-.915.916.916,0,0,1,.916-.915h7.122a.916.916,0,0,1,.916.915.915.915,0,0,1-.916.915Zm-9.65-3.943a1.336,1.336,0,0,1-1.334-1.335V9.18a1.414,1.414,0,0,1,1.412-1.413h17.581a.741.741,0,0,1,.741.742.742.742,0,0,1-.741.742H-549.2v41.7h26.124V21.033a.741.741,0,0,1,.742-.742.742.742,0,0,1,.742.742V51.1a1.337,1.337,0,0,1-1.335,1.335Zm6.222-11.782a1.313,1.313,0,0,1-1.311-1.311V32.9a5.275,5.275,0,0,1,4.381-5.192,5,5,0,0,1-1.1-3.137,4.973,4.973,0,0,1,1.553-3.63,4.981,4.981,0,0,1,3.7-1.383,5.041,5.041,0,0,1,4.778,4.826,5.037,5.037,0,0,1-1.1,3.323,5.277,5.277,0,0,1,4.388,5.194v6.442a1.312,1.312,0,0,1-1.31,1.311Zm.172-7.754v6.269h13.635V32.9a3.787,3.787,0,0,0-3.784-3.784h-1.078a.743.743,0,0,1-.721-.567.743.743,0,0,1,.382-.834,3.556,3.556,0,0,0,1.917-3.278,3.552,3.552,0,0,0-3.365-3.4,3.51,3.51,0,0,0-2.609.975,3.5,3.5,0,0,0-1.094,2.558,3.525,3.525,0,0,0,1.919,3.145.743.743,0,0,1,.382.834.743.743,0,0,1-.721.567h-1.077A3.788,3.788,0,0,0-542.952,32.9Zm13.3-23.262A9.645,9.645,0,0,1-520.019,0a9.646,9.646,0,0,1,9.635,9.635,9.647,9.647,0,0,1-9.635,9.636A9.646,9.646,0,0,1-529.654,9.635Zm1.482,0a8.161,8.161,0,0,0,8.152,8.152,8.161,8.161,0,0,0,8.152-8.152,8.162,8.162,0,0,0-8.152-8.153A8.162,8.162,0,0,0-528.171,9.635Zm7.523,3.9a.976.976,0,0,1-.729-.328l-2.415-2.739a.971.971,0,0,1,.086-1.372.972.972,0,0,1,1.372.085l1.681,1.905,3.54-4.074a.972.972,0,0,1,1.372-.1.972.972,0,0,1,.1,1.372l-4.268,4.912a.976.976,0,0,1-.73.335Z" transform="translate(633 3824)" stroke="rgba(0,0,0,0)" stroke-width="1" fill="url(#linear-gradient)"/>
  </g>
</svg>
