<svg xmlns="http://www.w3.org/2000/svg" xmlns:xlink="http://www.w3.org/1999/xlink" width="60" height="60" viewBox="0 0 60 60">
  <defs>
    <clipPath id="clip-path">
      <rect id="Rectangle_96" data-name="Rectangle 96" width="60" height="60" transform="translate(655 3744)" fill="#fff" stroke="#707070" stroke-width="1"/>
    </clipPath>
    <linearGradient id="linear-gradient" x1="0.5" x2="0.5" y2="1" gradientUnits="objectBoundingBox">
      <stop offset="0" stop-color="#00b5ff"/>
      <stop offset="1" stop-color="#0073b9"/>
    </linearGradient>
  </defs>
  <g id="icon-right-004" transform="translate(-655 -3744)" clip-path="url(#clip-path)">
    <path id="Union_29" data-name="Union 29" d="M-543.17,46.9a13.114,13.114,0,0,1,13.1-13.1,13.114,13.114,0,0,1,13.1,13.1,13.114,13.114,0,0,1-13.1,13.1A13.114,13.114,0,0,1-543.17,46.9Zm1.458,0a11.654,11.654,0,0,0,11.641,11.641A11.655,11.655,0,0,0-518.43,46.9,11.655,11.655,0,0,0-530.071,35.26,11.654,11.654,0,0,0-541.712,46.9Zm11.388,7.921a.6.6,0,0,1-.6-.6v-.464a.6.6,0,0,0-.454-.58,3.771,3.771,0,0,1-1.823-1.02,3.954,3.954,0,0,1-1.035-2.86.6.6,0,0,1,.6-.6h.944a.6.6,0,0,1,.6.6,1.972,1.972,0,0,0,.535,1.494,2.159,2.159,0,0,0,1.58.525,2.12,2.12,0,0,0,1.433-.454,1.344,1.344,0,0,0,.492-1.1,1.32,1.32,0,0,0-.386-1,4.831,4.831,0,0,0-1.775-.913,6.259,6.259,0,0,1-2.735-1.482,3.384,3.384,0,0,1-.877-2.395,3.427,3.427,0,0,1,.959-2.5,3.54,3.54,0,0,1,1.536-.907.6.6,0,0,0,.43-.573v-.6a.6.6,0,0,1,.6-.6h.8a.6.6,0,0,1,.6.6v.613a.6.6,0,0,0,.42.571,3.37,3.37,0,0,1,1.584,1.055,4.337,4.337,0,0,1,.9,2.859.6.6,0,0,1-.6.6h-.935a.6.6,0,0,1-.6-.6,2.276,2.276,0,0,0-.491-1.567,1.631,1.631,0,0,0-1.3-.524,1.856,1.856,0,0,0-1.331.425,1.453,1.453,0,0,0-.437,1.126,1.337,1.337,0,0,0,.383,1.038,4.972,4.972,0,0,0,1.74.873,9.1,9.1,0,0,1,2.152.97,3.466,3.466,0,0,1,1.127,1.229,3.533,3.533,0,0,1,.379,1.685,3.369,3.369,0,0,1-.985,2.507,3.626,3.626,0,0,1-1.595.9.6.6,0,0,0-.439.576v.491a.6.6,0,0,1-.6.6Zm15.185-15.043-3.739-4.943a.471.471,0,0,1,.375-.755h1.27a.47.47,0,0,0,.47-.47v-5.93a.471.471,0,0,1,.471-.471h3.057a.47.47,0,0,1,.47.471v5.93a.47.47,0,0,0,.472.47h1.269a.471.471,0,0,1,.375.755l-3.739,4.943a.467.467,0,0,1-.375.187A.469.469,0,0,1-515.139,39.779Zm-30.614,0-3.739-4.943a.471.471,0,0,1,.375-.755h1.269a.47.47,0,0,0,.471-.47v-5.93a.471.471,0,0,1,.471-.471h3.057a.47.47,0,0,1,.47.471v5.93a.47.47,0,0,0,.47.47h1.271a.471.471,0,0,1,.375.755L-545,39.779a.469.469,0,0,1-.376.187A.467.467,0,0,1-545.754,39.779Zm-9.084-25.209a.728.728,0,0,1,0-.917C-554.387,13.1-543.628,0-530.071,0s24.315,13.1,24.766,13.653a.728.728,0,0,1,0,.917c-.451.557-11.209,13.653-24.766,13.653S-554.387,15.127-554.837,14.57Zm1.526-.459c2.042,2.323,11.773,12.654,23.241,12.654s21.2-10.331,23.241-12.654c-2.042-2.322-11.773-12.653-23.241-12.653S-551.27,11.789-553.312,14.111Zm13.327,0A9.925,9.925,0,0,1-530.071,4.2a9.925,9.925,0,0,1,9.914,9.913,9.925,9.925,0,0,1-9.914,9.914A9.925,9.925,0,0,1-539.985,14.111Zm1.458,0a8.465,8.465,0,0,0,8.456,8.456,8.466,8.466,0,0,0,8.456-8.456,8.466,8.466,0,0,0-8.456-8.456A8.465,8.465,0,0,0-538.527,14.111Zm7.306,5.252a1.239,1.239,0,0,1-.926-.418l-3-3.4a1.235,1.235,0,0,1,.11-1.742,1.234,1.234,0,0,1,1.742.109l2.066,2.343,4.376-5.035a1.234,1.234,0,0,1,1.741-.122,1.235,1.235,0,0,1,.122,1.741l-5.3,6.1a1.232,1.232,0,0,1-.926.425Z" transform="translate(1215 3744)" stroke="rgba(0,0,0,0)" stroke-width="1" fill="url(#linear-gradient)"/>
  </g>
</svg>
