<svg xmlns="http://www.w3.org/2000/svg" xmlns:xlink="http://www.w3.org/1999/xlink" width="68" height="60.884" viewBox="0 0 68 60.884">
  <defs>
    <filter id="icon-08" x="0" y="0" width="68" height="60.884" filterUnits="userSpaceOnUse">
      <feOffset dy="3" input="SourceAlpha"/>
      <feGaussianBlur stdDeviation="3" result="blur"/>
      <feFlood flood-opacity="0.161"/>
      <feComposite operator="in" in2="blur"/>
      <feComposite in="SourceGraphic"/>
    </filter>
  </defs>
  <g transform="matrix(1, 0, 0, 1, 0, 0)" filter="url(#icon-08)">
    <path id="icon-08-2" data-name="icon-08" d="M-5873.693,42.884a.615.615,0,0,1-.594-.433l-3.255-10.545h-2.425a2,2,0,0,1-2.005-2.005V26.349h-3.787a2.239,2.239,0,0,1-2.24-2.24V18.849a2.239,2.239,0,0,1,2.24-2.24h3.787V13.057a2.013,2.013,0,0,1,2.005-2.005h3.539a.613.613,0,0,1,.619.619.613.613,0,0,1-.619.619h-3.539a.77.77,0,0,0-.767.767V29.9a.77.77,0,0,0,.767.767h12.1V29.74a.613.613,0,0,1,.618-.619.613.613,0,0,1,.619.619v1.114l20.383,7.5a.726.726,0,0,0,.706-.086.762.762,0,0,0,.334-.631V5.309a.758.758,0,0,0-.334-.631.8.8,0,0,0-.706-.087l-11.534,4.245a.625.625,0,0,1-.792-.371.623.623,0,0,1,.371-.792l11.535-4.245a2,2,0,0,1,1.844.235,2.013,2.013,0,0,1,.854,1.646V14.8A6.59,6.59,0,0,1-5838,21.362V21.6a6.588,6.588,0,0,1-5.965,6.548v9.493a2.013,2.013,0,0,1-.854,1.645,2.034,2.034,0,0,1-1.151.359,1.925,1.925,0,0,1-.693-.123l-20.682-7.625h-3.675l1.8,10.261a.615.615,0,0,1-.137.507.61.61,0,0,1-.47.223Zm.458-1.238h2.661l-1.708-9.739h-3.96Zm29.27-14.752a5.355,5.355,0,0,0,4.727-5.309V21.35a5.356,5.356,0,0,0-4.727-5.311Zm-42.8-8.058V24.1a1,1,0,0,0,1,1h3.787V17.834h-3.787A1,1,0,0,0-5886.762,18.836Zm19.108,8.181-6.806-6.076a.589.589,0,0,1-.211-.458V.619a.613.613,0,0,1,.619-.619h13.614a.613.613,0,0,1,.619.619V20.47a.6.6,0,0,1-.211.458l-6.806,6.088a.566.566,0,0,1-.409.161A.63.63,0,0,1-5867.654,27.017Zm-5.767-6.818,6.188,5.531,6.188-5.531V1.238h-12.377Zm6.7-5.719a2.377,2.377,0,0,1,2.376-2.376,2.376,2.376,0,0,1,2.376,2.376,2.376,2.376,0,0,1-2.376,2.376A2.377,2.377,0,0,1-5866.726,14.48Zm1.238,0a1.136,1.136,0,0,0,1.138,1.139,1.136,1.136,0,0,0,1.139-1.139,1.135,1.135,0,0,0-1.139-1.138A1.135,1.135,0,0,0-5865.487,14.48Zm-5.693,1.052a.614.614,0,0,1,0-.879l7.029-7.029a.614.614,0,0,1,.879,0,.614.614,0,0,1,0,.879l-7.029,7.029a.649.649,0,0,1-.446.186A.579.579,0,0,1-5871.181,15.532Zm-1.324-6.843a2.378,2.378,0,0,1,2.376-2.378,2.378,2.378,0,0,1,2.376,2.378,2.377,2.377,0,0,1-2.376,2.376A2.377,2.377,0,0,1-5872.5,8.689Zm1.238,0a1.135,1.135,0,0,0,1.138,1.138,1.135,1.135,0,0,0,1.138-1.138,1.143,1.143,0,0,0-1.138-1.139A1.135,1.135,0,0,0-5871.267,8.689Z" transform="translate(5897 6)" fill="#fff"/>
  </g>
</svg>
