<svg xmlns="http://www.w3.org/2000/svg" xmlns:xlink="http://www.w3.org/1999/xlink" width="67.988" height="68.001" viewBox="0 0 67.988 68.001">
  <defs>
    <filter id="icon-06" x="0" y="0" width="67.988" height="68.001" filterUnits="userSpaceOnUse">
      <feOffset dy="3" input="SourceAlpha"/>
      <feGaussianBlur stdDeviation="3" result="blur"/>
      <feFlood flood-opacity="0.161"/>
      <feComposite operator="in" in2="blur"/>
      <feComposite in="SourceGraphic"/>
    </filter>
  </defs>
  <g transform="matrix(1, 0, 0, 1, 0, 0)" filter="url(#icon-06)">
    <path id="icon-06-2" data-name="icon-06" d="M-5840.733,49.828l-4.931-4.931-1.979,2.952a.58.58,0,0,1-1.043-.189l-2.41-10.066a.57.57,0,0,1,.69-.692l10.066,2.412a.579.579,0,0,1,.189,1.043l-2.954,1.979,4.932,4.931a.6.6,0,0,1-.013.826l-1.735,1.735a.547.547,0,0,1-.4.173A.581.581,0,0,1-5840.733,49.828Zm-16.474-6.543a.67.67,0,0,1,0-.962l2.737-2.737a.652.652,0,0,1,.947,0,.669.669,0,0,1,0,.962l-2.735,2.737a.64.64,0,0,1-.474.2A.684.684,0,0,1-5857.207,43.285ZM-5888,20.051A20.075,20.075,0,0,1-5867.949,0,20.057,20.057,0,0,1-5847.9,20.051a19.98,19.98,0,0,1-1,6.258.674.674,0,0,1-.854.434.674.674,0,0,1-.433-.854,18.535,18.535,0,0,0,.934-5.838,18.715,18.715,0,0,0-18.694-18.7,18.727,18.727,0,0,0-18.709,18.7,18.715,18.715,0,0,0,18.694,18.694,18.732,18.732,0,0,0,5.69-.881.669.669,0,0,1,.854.434.673.673,0,0,1-.434.853,19.7,19.7,0,0,1-6.1.949A20.074,20.074,0,0,1-5888,20.051Zm28.883,17.651a.669.669,0,0,1-.677-.677.669.669,0,0,1,.677-.677h3.875a.67.67,0,0,1,.678.677.679.679,0,0,1-.678.677Zm10.716-3.224a.672.672,0,0,1,0-.962l2.737-2.735a.669.669,0,0,1,.962,0,.681.681,0,0,1-.015.961l-2.735,2.737a.657.657,0,0,1-.474.2A.679.679,0,0,1-5848.4,34.478Zm-6.069,0-2.737-2.737a.668.668,0,0,1,0-.961.667.667,0,0,1,.96,0l2.724,2.735a.669.669,0,0,1,0,.962.653.653,0,0,1-.474.2A.676.676,0,0,1-5854.47,34.478Zm2.832-1.733V28.87a.67.67,0,0,1,.677-.678.671.671,0,0,1,.677.678v3.875a.669.669,0,0,1-.677.677A.669.669,0,0,1-5851.638,32.744Zm-15.039-6.341a5.083,5.083,0,0,1,5.08-5.08,5.083,5.083,0,0,1,5.081,5.08,5.082,5.082,0,0,1-5.081,5.08A5.082,5.082,0,0,1-5866.677,26.4Zm1.355,0a3.723,3.723,0,0,0,3.725,3.725,3.722,3.722,0,0,0,3.726-3.725,3.723,3.723,0,0,0-3.726-3.725A3.724,3.724,0,0,0-5865.322,26.4Zm-9.93,2.574a2.081,2.081,0,0,1-.786-1.45,2.1,2.1,0,0,1,.461-1.584l11.746-14.645a2.207,2.207,0,0,1,1.45-.8,2.094,2.094,0,0,1,1.584.461,2.2,2.2,0,0,1,.8,1.45,2.1,2.1,0,0,1-.46,1.584L-5872.2,28.639a2.173,2.173,0,0,1-1.693.813A2.144,2.144,0,0,1-5875.252,28.978Zm12.464-16.825L-5874.534,26.8a.777.777,0,0,0-.176.6.83.83,0,0,0,.3.541.828.828,0,0,0,1.139-.121l11.745-14.645a.792.792,0,0,0,.176-.6.836.836,0,0,0-.3-.542.837.837,0,0,0-.5-.176h-.1A.83.83,0,0,0-5862.788,12.153Zm-.922,14.251a2.116,2.116,0,0,1,2.113-2.113,2.116,2.116,0,0,1,2.113,2.113,2.116,2.116,0,0,1-2.113,2.115A2.116,2.116,0,0,1-5863.709,26.4Zm1.355,0a.757.757,0,0,0,.758.76.758.758,0,0,0,.76-.76.758.758,0,0,0-.76-.758A.757.757,0,0,0-5862.354,26.4Zm-17.178-12.856a5.082,5.082,0,0,1,5.08-5.08,5.082,5.082,0,0,1,5.081,5.08,5.082,5.082,0,0,1-5.081,5.08A5.082,5.082,0,0,1-5879.533,13.547Zm1.355,0a3.732,3.732,0,0,0,3.725,3.725,3.724,3.724,0,0,0,3.726-3.725,3.723,3.723,0,0,0-3.726-3.725A3.722,3.722,0,0,0-5878.178,13.547Zm1.612,0a2.115,2.115,0,0,1,2.113-2.113,2.117,2.117,0,0,1,2.113,2.113,2.117,2.117,0,0,1-2.113,2.113A2.115,2.115,0,0,1-5876.565,13.547Zm1.354,0a.758.758,0,0,0,.759.758.757.757,0,0,0,.758-.758.757.757,0,0,0-.758-.758A.758.758,0,0,0-5875.212,13.547Z" transform="translate(5897 6)" fill="#fff"/>
  </g>
</svg>
