<svg xmlns="http://www.w3.org/2000/svg" xmlns:xlink="http://www.w3.org/1999/xlink" width="60" height="60" viewBox="0 0 60 60">
  <defs>
    <clipPath id="clip-path">
      <rect id="Rectangle_91" data-name="Rectangle 91" width="60" height="60" transform="translate(70 3744)" fill="#fff" stroke="#707070" stroke-width="1"/>
    </clipPath>
    <linearGradient id="linear-gradient" x1="0.5" x2="0.5" y2="1" gradientUnits="objectBoundingBox">
      <stop offset="0" stop-color="#00b5ff"/>
      <stop offset="1" stop-color="#0073b9"/>
    </linearGradient>
  </defs>
  <g id="icon-left-004" transform="translate(-70 -3744)" clip-path="url(#clip-path)">
    <path id="Union_24" data-name="Union 24" d="M-550.936,42.982A4.069,4.069,0,0,1-555,38.918V4.064A4.07,4.07,0,0,1-550.936,0h51.871A4.07,4.07,0,0,1-495,4.064V38.918a4.069,4.069,0,0,1-4.064,4.064Zm-2.471-4.064a2.474,2.474,0,0,0,2.471,2.471h51.871a2.473,2.473,0,0,0,2.471-2.471V11.456h-56.813Zm0-34.853v5.8h56.813v-5.8a2.473,2.473,0,0,0-2.471-2.471h-51.871A2.473,2.473,0,0,0-553.406,4.064ZM-531.658,38.1a3.222,3.222,0,0,1-3.218-3.218V26.523h-2.375a1.927,1.927,0,0,1-1.924-1.923V21.7a2.95,2.95,0,0,1-2.149-2.833,2.95,2.95,0,0,1,2.947-2.947,2.95,2.95,0,0,1,2.947,2.947,2.95,2.95,0,0,1-2.149,2.833v2.9a.33.33,0,0,0,.329.329h2.375V21.46a3.222,3.222,0,0,1,3.218-3.218h2.465a4.265,4.265,0,0,1,4.243-3.9,4.264,4.264,0,0,1,4.244,3.9h2.466a3.221,3.221,0,0,1,3.217,3.218v3.469h2.375a.33.33,0,0,0,.33-.329V21.7a2.949,2.949,0,0,1-2.15-2.833,2.95,2.95,0,0,1,2.947-2.947,2.95,2.95,0,0,1,2.947,2.947,2.95,2.95,0,0,1-2.149,2.833v2.9a1.927,1.927,0,0,1-1.924,1.923h-2.375v8.356A3.222,3.222,0,0,1-518.24,38.1Zm-1.624-16.637V34.879a1.626,1.626,0,0,0,1.624,1.625h13.418a1.626,1.626,0,0,0,1.624-1.625V21.46a1.625,1.625,0,0,0-1.624-1.624h-13.418A1.625,1.625,0,0,0-533.281,21.46Zm20.408-2.59a1.354,1.354,0,0,0,1.353,1.352,1.354,1.354,0,0,0,1.353-1.352,1.354,1.354,0,0,0-1.353-1.353A1.355,1.355,0,0,0-512.873,18.869Zm-26.857,0a1.354,1.354,0,0,0,1.353,1.352,1.354,1.354,0,0,0,1.353-1.352,1.355,1.355,0,0,0-1.353-1.353A1.355,1.355,0,0,0-539.73,18.869Zm12.138-.627h5.287a2.671,2.671,0,0,0-2.643-2.3A2.671,2.671,0,0,0-527.592,18.242Zm6.267,15.64v-2.57a.8.8,0,0,1,.8-.8.8.8,0,0,1,.8.8v2.57a.8.8,0,0,1-.8.8A.8.8,0,0,1-521.325,33.882Zm-2.956,0v-2.57a.8.8,0,0,1,.8-.8.8.8,0,0,1,.8.8v2.57a.8.8,0,0,1-.8.8A.8.8,0,0,1-524.281,33.882Zm-2.958,0v-2.57a.8.8,0,0,1,.8-.8.8.8,0,0,1,.8.8v2.57a.8.8,0,0,1-.8.8A.8.8,0,0,1-527.24,33.882Zm-2.957,0v-2.57a.8.8,0,0,1,.8-.8.8.8,0,0,1,.8.8v2.57a.8.8,0,0,1-.8.8A.8.8,0,0,1-530.2,33.882Zm5.415-8.156a3.759,3.759,0,0,1,3.755-3.755,3.758,3.758,0,0,1,3.755,3.755,3.759,3.759,0,0,1-3.755,3.754A3.759,3.759,0,0,1-524.782,25.727Zm1.594,0a2.164,2.164,0,0,0,2.161,2.16,2.163,2.163,0,0,0,2.161-2.16,2.163,2.163,0,0,0-2.161-2.161A2.163,2.163,0,0,0-523.188,25.727Zm-9.438,0a3.759,3.759,0,0,1,3.755-3.755,3.758,3.758,0,0,1,3.755,3.755,3.759,3.759,0,0,1-3.755,3.754A3.759,3.759,0,0,1-532.626,25.727Zm1.594,0a2.164,2.164,0,0,0,2.161,2.16,2.163,2.163,0,0,0,2.161-2.16,2.163,2.163,0,0,0-2.161-2.161A2.163,2.163,0,0,0-531.032,25.727Zm8.774,0a1.231,1.231,0,0,1,1.231-1.231,1.231,1.231,0,0,1,1.231,1.231,1.231,1.231,0,0,1-1.231,1.23A1.232,1.232,0,0,1-522.258,25.727Zm-7.844,0a1.231,1.231,0,0,1,1.231-1.231,1.231,1.231,0,0,1,1.231,1.231,1.231,1.231,0,0,1-1.231,1.23A1.232,1.232,0,0,1-530.1,25.727Zm25.947-19.868a2.273,2.273,0,0,1,2.271-2.271,2.274,2.274,0,0,1,2.272,2.271,2.274,2.274,0,0,1-2.272,2.272A2.274,2.274,0,0,1-504.156,5.859Zm1.594,0a.678.678,0,0,0,.677.678.679.679,0,0,0,.678-.678.678.678,0,0,0-.678-.677A.677.677,0,0,0-502.562,5.859Zm-7.606,0A2.273,2.273,0,0,1-507.9,3.588a2.274,2.274,0,0,1,2.272,2.271A2.274,2.274,0,0,1-507.9,8.131,2.274,2.274,0,0,1-510.168,5.859Zm1.594,0a.678.678,0,0,0,.677.678.679.679,0,0,0,.678-.678.678.678,0,0,0-.678-.677A.677.677,0,0,0-508.574,5.859Zm-41.736,0a2.274,2.274,0,0,1,2.272-2.271,2.273,2.273,0,0,1,2.271,2.271,2.274,2.274,0,0,1-2.271,2.272A2.274,2.274,0,0,1-550.31,5.859Zm1.594,0a.679.679,0,0,0,.678.678.678.678,0,0,0,.677-.678.677.677,0,0,0-.677-.677A.678.678,0,0,0-548.716,5.859Z" transform="translate(625 3753)" stroke="rgba(0,0,0,0)" stroke-width="1" fill="url(#linear-gradient)"/>
  </g>
</svg>
