<svg xmlns="http://www.w3.org/2000/svg" xmlns:xlink="http://www.w3.org/1999/xlink" width="68" height="68.001" viewBox="0 0 68 68.001">
  <defs>
    <filter id="icon-01" x="0" y="0" width="68" height="68.001" filterUnits="userSpaceOnUse">
      <feOffset dy="3" input="SourceAlpha"/>
      <feGaussianBlur stdDeviation="3" result="blur"/>
      <feFlood flood-opacity="0.161"/>
      <feComposite operator="in" in2="blur"/>
      <feComposite in="SourceGraphic"/>
    </filter>
  </defs>
  <g transform="matrix(1, 0, 0, 1, 0, 0)" filter="url(#icon-01)">
    <path id="icon-01-2" data-name="icon-01" d="M-5839.385,49.308V21.164h-47.23V49.308a.686.686,0,0,1-.692.693.686.686,0,0,1-.693-.693V20.47a.685.685,0,0,1,.693-.692h48.615a.694.694,0,0,1,.693.692V49.308a.687.687,0,0,1-.693.693A.687.687,0,0,1-5839.385,49.308Zm-43.92.693a.686.686,0,0,1-.692-.693V42.8a4.908,4.908,0,0,1,4.058-4.82,4.692,4.692,0,0,1-1.011-2.91,4.669,4.669,0,0,1,4.667-4.667,4.689,4.689,0,0,1,4.668,4.681,4.642,4.642,0,0,1-2.534,4.14.7.7,0,0,1-.928-.3.7.7,0,0,1,.3-.928A3.28,3.28,0,0,0-5873,35.069a3.281,3.281,0,0,0-3.283-3.282,3.29,3.29,0,0,0-3.282,3.282,3.267,3.267,0,0,0,1.773,2.923.673.673,0,0,1,.36.776.712.712,0,0,1-.68.526h-1a3.509,3.509,0,0,0-3.5,3.505v5.816h7.8a.686.686,0,0,1,.693.693.687.687,0,0,1-.693.693Zm32.119-.015a.685.685,0,0,1-.692-.692.686.686,0,0,1,.692-.693h7.8V42.784a3.508,3.508,0,0,0-3.5-3.5h-1a.7.7,0,0,1-.678-.526.7.7,0,0,1,.361-.776,3.285,3.285,0,0,0,1.771-2.923,3.289,3.289,0,0,0-3.282-3.282A3.289,3.289,0,0,0-5853,35.055a3.284,3.284,0,0,0,1.772,2.923.676.676,0,0,1,.306.928.677.677,0,0,1-.929.3,4.629,4.629,0,0,1-2.534-4.142,4.67,4.67,0,0,1,4.668-4.667,4.67,4.67,0,0,1,4.668,4.667,4.637,4.637,0,0,1-1.012,2.91A4.893,4.893,0,0,1-5842,42.784v6.511a.686.686,0,0,1-.693.692Zm-20.525-.25a.708.708,0,0,1-.707-.706V41.038a5.627,5.627,0,0,1,5.623-5.623h1.343a5.342,5.342,0,0,1-2.88-4.737,5.318,5.318,0,0,1,5.568-5.318,5.359,5.359,0,0,1,5.069,5.111,5.3,5.3,0,0,1-2.88,4.93h1.343a5.59,5.59,0,0,1,5.609,5.624v8a.709.709,0,0,1-.706.706Zm27.949-32.022-2.867-2.867-.928,1.371a1.1,1.1,0,0,1-1.108.47,1.1,1.1,0,0,1-.872-.83l-1.7-7.05a1.074,1.074,0,0,1,.291-1.039,1.08,1.08,0,0,1,1.039-.291l7.063,1.69a1.1,1.1,0,0,1,.831.872,1.125,1.125,0,0,1-.47,1.108l-1.372.928,2.867,2.867a1.091,1.091,0,0,1,.319.776,1.086,1.086,0,0,1-.319.776l-1.219,1.219a1.087,1.087,0,0,1-.775.319A1.091,1.091,0,0,1-5843.762,17.715Zm-2.991-4.668a.709.709,0,0,1,.484.208l3.255,3.255.816-.817-3.254-3.255a.715.715,0,0,1-.194-.554.728.728,0,0,1,.3-.513l1.537-1.024-5.983-1.441,1.427,5.983,1.024-1.537a.679.679,0,0,1,.513-.306Zm-21.8,4.35a.694.694,0,0,1-.208-.956L-5858.4.332a.694.694,0,0,1,.956-.208.694.694,0,0,1,.207.956L-5867.6,17.189a.683.683,0,0,1-.582.318A.743.743,0,0,1-5868.554,17.4Zm-16.773-8.643A8.764,8.764,0,0,1-5876.573,0a8.764,8.764,0,0,1,8.754,8.754,8.763,8.763,0,0,1-8.754,8.752A8.754,8.754,0,0,1-5885.327,8.754Zm1.384,0a7.384,7.384,0,0,0,7.369,7.368,7.382,7.382,0,0,0,7.368-7.368,7.383,7.383,0,0,0-7.368-7.369A7.375,7.375,0,0,0-5883.942,8.754Zm6.885,6.288a.214.214,0,0,1-.208-.208v-.859a.2.2,0,0,0-.166-.194,2.989,2.989,0,0,1-1.634-.845,3.109,3.109,0,0,1-.818-2.256V10.4a.212.212,0,0,1,.208-.207h1.289a.212.212,0,0,1,.207.207v.278a1.53,1.53,0,0,0,.417,1.176,1.71,1.71,0,0,0,1.246.415,1.722,1.722,0,0,0,1.137-.359,1.083,1.083,0,0,0,.387-.873,1.019,1.019,0,0,0-.3-.789,3.755,3.755,0,0,0-1.4-.72,4.838,4.838,0,0,1-2.16-1.164,2.711,2.711,0,0,1-.692-1.9,2.741,2.741,0,0,1,.761-1.98,2.948,2.948,0,0,1,1.4-.762.2.2,0,0,0,.152-.194V2.576a.212.212,0,0,1,.208-.207h1.176a.213.213,0,0,1,.208.207v.956a.19.19,0,0,0,.152.194,2.647,2.647,0,0,1,1.426.887,3.439,3.439,0,0,1,.707,2.258v.276a.213.213,0,0,1-.207.208h-1.275a.213.213,0,0,1-.207-.208V6.87a1.775,1.775,0,0,0-.389-1.232,1.291,1.291,0,0,0-1.024-.415,1.479,1.479,0,0,0-1.053.332,1.128,1.128,0,0,0-.346.885,1.047,1.047,0,0,0,.3.817,3.687,3.687,0,0,0,1.371.693,7.5,7.5,0,0,1,1.7.762,2.684,2.684,0,0,1,.887.969,2.574,2.574,0,0,1,.291,1.343,2.691,2.691,0,0,1-.776,1.98,2.852,2.852,0,0,1-1.441.762.192.192,0,0,0-.166.194v.872a.214.214,0,0,1-.208.208Zm22.063-2.271a.685.685,0,0,1,0-.984l1.925-1.924a.68.68,0,0,1,.969,0,.686.686,0,0,1,0,.983l-1.925,1.925a.669.669,0,0,1-.485.208A.7.7,0,0,1-5854.994,12.77Zm-1.191-3.851a.686.686,0,0,1-.693-.692.686.686,0,0,1,.693-.693h2.714a.686.686,0,0,1,.693.693.686.686,0,0,1-.693.692Zm3.116-2.326-1.94-1.925a.688.688,0,0,1,0-.984.687.687,0,0,1,.984,0l1.925,1.925a.688.688,0,0,1,0,.984.675.675,0,0,1-.484.207A.7.7,0,0,1-5853.069,6.593Zm4.238-.015a.683.683,0,0,1,0-.983l1.925-1.925a.683.683,0,0,1,.982,0,.683.683,0,0,1,0,.983l-1.925,1.925a.647.647,0,0,1-.485.208A.75.75,0,0,1-5848.831,6.579Zm-2.313-1.357V2.493a.685.685,0,0,1,.692-.692.685.685,0,0,1,.693.692V5.222a.685.685,0,0,1-.693.692A.694.694,0,0,1-5851.144,5.222Z" transform="translate(5897 6)" fill="#fff"/>
  </g>
</svg>
