<svg xmlns="http://www.w3.org/2000/svg" xmlns:xlink="http://www.w3.org/1999/xlink" width="60" height="60" viewBox="0 0 60 60">
  <defs>
    <clipPath id="clip-path">
      <rect id="Rectangle_93" data-name="Rectangle 93" width="60" height="60" transform="translate(655 3504)" fill="#fff" stroke="#707070" stroke-width="1"/>
    </clipPath>
    <linearGradient id="linear-gradient" x1="0.5" x2="0.5" y2="1" gradientUnits="objectBoundingBox">
      <stop offset="0" stop-color="#00b5ff"/>
      <stop offset="1" stop-color="#0073b9"/>
    </linearGradient>
  </defs>
  <g id="icon-right-001" transform="translate(-655 -3504)" clip-path="url(#clip-path)">
    <path id="Union_26" data-name="Union 26" d="M-542.01,44.177A1.174,1.174,0,0,1-543.184,43a1.174,1.174,0,0,1,1.174-1.174h34.019A1.174,1.174,0,0,1-506.816,43a1.174,1.174,0,0,1-1.174,1.174Zm-10.12-6.15a2.873,2.873,0,0,1-2.87-2.87,2.874,2.874,0,0,1,2.87-2.869h54.26A2.873,2.873,0,0,1-495,35.157a2.873,2.873,0,0,1-2.87,2.87Zm-1.525-2.87a1.526,1.526,0,0,0,1.525,1.525h54.26a1.525,1.525,0,0,0,1.525-1.525,1.526,1.526,0,0,0-1.525-1.525h-54.26A1.526,1.526,0,0,0-553.655,35.157Zm53-4.619V2.018a.673.673,0,0,0-.672-.672h-47.354a.674.674,0,0,0-.673.672v28.52a.673.673,0,0,1-.672.673.673.673,0,0,1-.672-.673V2.018A2.02,2.02,0,0,1-548.677,0h47.354A2.02,2.02,0,0,1-499.3,2.018v28.52a.673.673,0,0,1-.673.673A.673.673,0,0,1-500.65,30.538Zm-45.785-.269a.672.672,0,0,1-.672-.672V4.036a.672.672,0,0,1,.672-.672h42.87a.673.673,0,0,1,.673.672V29.6a.673.673,0,0,1-.673.672Zm.672-1.345h41.525V4.709h-41.525Zm17.277-5.737a1.331,1.331,0,0,1-.583-1.788l5.764-11.346a1.333,1.333,0,0,1,1.789-.584,1.332,1.332,0,0,1,.584,1.789L-526.7,22.6a1.333,1.333,0,0,1-1.188.728A1.332,1.332,0,0,1-528.485,23.187Zm9.4-.245a1.331,1.331,0,0,1,0-1.882l4.732-4.732-4.733-4.733a1.33,1.33,0,0,1,0-1.881,1.331,1.331,0,0,1,1.882,0l5.674,5.673a1.334,1.334,0,0,1,.39.941,1.328,1.328,0,0,1-.391.941l-5.674,5.674a1.325,1.325,0,0,1-.94.389A1.328,1.328,0,0,1-519.088,22.942Zm-13.706,0-5.673-5.674a1.327,1.327,0,0,1-.39-.941,1.33,1.33,0,0,1,.39-.941l5.673-5.673a1.331,1.331,0,0,1,1.882,0,1.33,1.33,0,0,1,0,1.881l-4.734,4.733,4.734,4.732a1.331,1.331,0,0,1,0,1.882,1.328,1.328,0,0,1-.94.389A1.329,1.329,0,0,1-532.794,22.942Z" transform="translate(1210 3512)" stroke="rgba(0,0,0,0)" stroke-width="1" fill="url(#linear-gradient)"/>
  </g>
</svg>
