<svg xmlns="http://www.w3.org/2000/svg" xmlns:xlink="http://www.w3.org/1999/xlink" width="60" height="60" viewBox="0 0 60 60">
  <defs>
    <clipPath id="clip-path">
      <rect id="Rectangle_94" data-name="Rectangle 94" width="60" height="60" transform="translate(655 3584)" fill="#fff" stroke="#707070" stroke-width="1"/>
    </clipPath>
    <linearGradient id="linear-gradient" x1="0.5" x2="0.5" y2="1" gradientUnits="objectBoundingBox">
      <stop offset="0" stop-color="#00b5ff"/>
      <stop offset="1" stop-color="#0073b9"/>
    </linearGradient>
  </defs>
  <g id="icon-right-002" transform="translate(-655 -3584)" clip-path="url(#clip-path)">
    <path id="Union_27" data-name="Union 27" d="M-555,30A30.034,30.034,0,0,1-525,0a30.034,30.034,0,0,1,30,30,30.034,30.034,0,0,1-30,30A30.034,30.034,0,0,1-555,30Zm1.493,0A28.539,28.539,0,0,0-525,58.507,28.54,28.54,0,0,0-496.492,30,28.541,28.541,0,0,0-525,1.492,28.54,28.54,0,0,0-553.507,30Zm33.692,22.569a2.24,2.24,0,0,1,2.238-2.236,2.239,2.239,0,0,1,2.237,2.236,2.24,2.24,0,0,1-2.237,2.238A2.24,2.24,0,0,1-519.815,52.569Zm1.492,0a.747.747,0,0,0,.746.746.746.746,0,0,0,.744-.746.745.745,0,0,0-.744-.744A.746.746,0,0,0-518.323,52.569Zm-13.266.617V50.861h-2.326a.747.747,0,0,1-.746-.747.747.747,0,0,1,.746-.746h2.326V47.042a.746.746,0,0,1,.746-.746.746.746,0,0,1,.746.746v2.326h2.326a.747.747,0,0,1,.747.746.747.747,0,0,1-.747.747H-530.1v2.325a.745.745,0,0,1-.746.746A.745.745,0,0,1-531.589,53.186Zm8.049.44a.745.745,0,0,1,0-1.055l5.968-5.968a.746.746,0,0,1,1.056,0,.746.746,0,0,1,0,1.056l-5.968,5.967a.744.744,0,0,1-.528.219A.744.744,0,0,1-523.54,53.626Zm-1.185-5.967a2.24,2.24,0,0,1,2.237-2.237,2.24,2.24,0,0,1,2.238,2.237,2.239,2.239,0,0,1-2.238,2.237A2.24,2.24,0,0,1-524.725,47.659Zm1.492,0a.746.746,0,0,0,.745.745.746.746,0,0,0,.746-.745.747.747,0,0,0-.746-.745A.746.746,0,0,0-523.233,47.659Zm9.949-3.7a3.989,3.989,0,0,1-2.921-2.8h-30.153a1.109,1.109,0,0,1-1.108-1.109,1.108,1.108,0,0,1,1.108-1.108h30.167a3.989,3.989,0,0,1,4.741-2.75,3.988,3.988,0,0,1,2.908,2.75h4.9a1.109,1.109,0,0,1,1.108,1.108,1.109,1.109,0,0,1-1.108,1.109h-4.888a3.992,3.992,0,0,1-3.835,2.906A3.993,3.993,0,0,1-513.284,43.959ZM-543.42,24a.746.746,0,0,1,0-.941c.335-.413,8.328-10.142,18.42-10.142s18.085,9.729,18.42,10.142a.749.749,0,0,1,0,.941c-.335.413-8.328,10.142-18.42,10.142S-543.085,24.41-543.42,24Zm1.566-.471c1.722,1.928,8.7,9.121,16.854,9.121s15.132-7.193,16.853-9.121c-1.722-1.928-8.694-9.119-16.853-9.119S-540.132,21.6-541.854,23.526Zm10.856,0a6.005,6.005,0,0,1,6-6,6.005,6.005,0,0,1,6,6,6,6,0,0,1-6,6A6.005,6.005,0,0,1-531,23.527Zm1.492,0A4.511,4.511,0,0,0-525,28.031a4.51,4.51,0,0,0,4.505-4.505,4.51,4.51,0,0,0-4.505-4.5A4.51,4.51,0,0,0-529.506,23.526Z" transform="translate(1210 3584)" stroke="rgba(0,0,0,0)" stroke-width="1" fill="url(#linear-gradient)"/>
  </g>
</svg>
