<svg xmlns="http://www.w3.org/2000/svg" xmlns:xlink="http://www.w3.org/1999/xlink" width="60" height="60" viewBox="0 0 60 60">
  <defs>
    <clipPath id="clip-path">
      <rect id="Rectangle_89" data-name="Rectangle 89" width="60" height="60" transform="translate(70 3584)" fill="#fff" stroke="#707070" stroke-width="1"/>
    </clipPath>
    <linearGradient id="linear-gradient" x1="0.5" x2="0.5" y2="1" gradientUnits="objectBoundingBox">
      <stop offset="0" stop-color="#00b5ff"/>
      <stop offset="1" stop-color="#0073b9"/>
    </linearGradient>
  </defs>
  <g id="icon-left-002" transform="translate(-70 -3584)" clip-path="url(#clip-path)">
    <path id="Union_22" data-name="Union 22" d="M-550.945,42.879A4.059,4.059,0,0,1-555,38.824V4.055A4.06,4.06,0,0,1-550.945,0H-499.2a4.06,4.06,0,0,1,4.055,4.055v34.77a4.059,4.059,0,0,1-4.055,4.055Zm-2.465-4.055a2.468,2.468,0,0,0,2.465,2.464H-499.2a2.467,2.467,0,0,0,2.464-2.464v-27.4H-553.41Zm0-34.77V9.839h56.676V4.055A2.467,2.467,0,0,0-499.2,1.59h-51.746A2.467,2.467,0,0,0-553.41,4.055Zm35.816,33.132-4.017-4.017-1.353,2.016a1.345,1.345,0,0,1-1.356.575,1.348,1.348,0,0,1-1.072-1.012l-2.3-9.6a1.334,1.334,0,0,1,.357-1.265,1.339,1.339,0,0,1,1.265-.357l9.6,2.3a1.347,1.347,0,0,1,1.012,1.072,1.349,1.349,0,0,1-.574,1.356l-2.017,1.353,4.017,4.017a1.339,1.339,0,0,1,.4.952,1.338,1.338,0,0,1-.4.953l-1.657,1.657a1.338,1.338,0,0,1-.953.4A1.342,1.342,0,0,1-517.594,37.186Zm-3.577-5.825,4.528,4.528,1.314-1.313-4.528-4.528a.792.792,0,0,1-.229-.64.793.793,0,0,1,.349-.582l2.356-1.582-8.67-2.075,2.075,8.67,1.582-2.357a.794.794,0,0,1,.582-.348.761.761,0,0,1,.078,0A.794.794,0,0,1-521.171,31.361Zm8.368-.674a.8.8,0,0,1-.795-.795.8.8,0,0,1,.795-.8h6.661V20.721h-37.791V29.1H-530.3a.8.8,0,0,1,.795.8.8.8,0,0,1-.795.795h-14.423a.8.8,0,0,1-.8-.795V19.926a.8.8,0,0,1,.8-.795h39.38a.794.794,0,0,1,.795.795v9.967a.8.8,0,0,1-.795.795Zm8.525-24.842a2.268,2.268,0,0,1,2.266-2.266,2.268,2.268,0,0,1,2.265,2.266,2.269,2.269,0,0,1-2.265,2.266A2.269,2.269,0,0,1-504.278,5.845Zm1.59,0a.677.677,0,0,0,.676.676.677.677,0,0,0,.676-.676.677.677,0,0,0-.676-.676A.677.677,0,0,0-502.688,5.845Zm-7.588,0a2.269,2.269,0,0,1,2.266-2.266,2.268,2.268,0,0,1,2.265,2.266,2.269,2.269,0,0,1-2.265,2.266A2.269,2.269,0,0,1-510.276,5.845Zm1.59,0a.677.677,0,0,0,.676.676.677.677,0,0,0,.676-.676.677.677,0,0,0-.676-.676A.677.677,0,0,0-508.685,5.845Zm-41.636,0a2.269,2.269,0,0,1,2.266-2.266,2.268,2.268,0,0,1,2.266,2.266,2.269,2.269,0,0,1-2.266,2.266A2.269,2.269,0,0,1-550.321,5.845Zm1.59,0a.677.677,0,0,0,.676.676.677.677,0,0,0,.676-.676.677.677,0,0,0-.676-.676A.677.677,0,0,0-548.731,5.845Z" transform="translate(625 3595.091)" stroke="rgba(0,0,0,0)" stroke-width="1" fill="url(#linear-gradient)"/>
  </g>
</svg>
