<svg xmlns="http://www.w3.org/2000/svg" xmlns:xlink="http://www.w3.org/1999/xlink" width="60" height="60" viewBox="0 0 60 60">
  <defs>
    <clipPath id="clip-path">
      <rect id="Rectangle_97" data-name="Rectangle 97" width="60" height="60" transform="translate(655 3824)" fill="#fff" stroke="#707070" stroke-width="1"/>
    </clipPath>
    <linearGradient id="linear-gradient" x1="0.5" x2="0.5" y2="1" gradientUnits="objectBoundingBox">
      <stop offset="0" stop-color="#00b5ff"/>
      <stop offset="1" stop-color="#0073b9"/>
    </linearGradient>
  </defs>
  <g id="icon-right-005" transform="translate(-655 -3824)" clip-path="url(#clip-path)">
    <path id="Union_30" data-name="Union 30" d="M-554.314,41.741a.686.686,0,0,1-.687-.686V6.74a.686.686,0,0,1,.687-.686h17.565a.683.683,0,0,1,.3.073.314.314,0,0,1,.039.021.67.67,0,0,1,.145.107l7.582,7.582a.675.675,0,0,1,.107.146.261.261,0,0,1,.021.039.612.612,0,0,1,.059.167v0a.649.649,0,0,1,.013.132V41.055a.686.686,0,0,1-.686.686Zm.686-1.372h23.775V15.008h-6.9a.686.686,0,0,1-.686-.686v-6.9h-16.194Zm17.565-26.733h5.24l-5.24-5.24Zm16.045,28.1a3.01,3.01,0,0,1-3.006-3.006V17.079a3.01,3.01,0,0,1,3.006-3.006h21.655a3.01,3.01,0,0,1,3.006,3.006V38.734a3.01,3.01,0,0,1-3.006,3.006Zm-1.634-24.661V38.734a1.637,1.637,0,0,0,1.634,1.634h21.655a1.636,1.636,0,0,0,1.634-1.634V17.079a1.635,1.635,0,0,0-1.634-1.633h-21.655A1.636,1.636,0,0,0-521.652,17.079Zm8.535,18.639a2.083,2.083,0,0,1-1.109-1.844V21.946a2.081,2.081,0,0,1,1.109-1.843,2.084,2.084,0,0,1,2.148.116l8.8,5.964a2.083,2.083,0,0,1,.916,1.727,2.083,2.083,0,0,1-.916,1.727l-8.8,5.964a2.084,2.084,0,0,1-1.171.361A2.088,2.088,0,0,1-513.117,35.718Zm.643-14.4a.706.706,0,0,0-.38.632V33.874a.7.7,0,0,0,.38.632.707.707,0,0,0,.736-.041l8.8-5.964a.7.7,0,0,0,.314-.592.7.7,0,0,0-.314-.59l-8.8-5.964a.712.712,0,0,0-.4-.125A.732.732,0,0,0-512.474,21.314Zm-31.464,9.311a.839.839,0,0,1-.367-1.128l3.635-7.157a.84.84,0,0,1,1.128-.368.839.839,0,0,1,.368,1.129l-3.635,7.156a.838.838,0,0,1-.749.459A.833.833,0,0,1-543.938,30.625Zm5.927-.156a.837.837,0,0,1,0-1.186l2.984-2.984-2.984-2.984a.838.838,0,0,1,0-1.187.839.839,0,0,1,1.186,0l3.578,3.577A.844.844,0,0,1-533,26.3a.842.842,0,0,1-.246.593l-3.578,3.578a.833.833,0,0,1-.593.246A.83.83,0,0,1-538.011,30.47Zm-8.645,0-3.578-3.578a.835.835,0,0,1-.246-.593.838.838,0,0,1,.245-.593l3.578-3.578a.84.84,0,0,1,1.187,0,.841.841,0,0,1,0,1.187l-2.985,2.984,2.984,2.984a.841.841,0,0,1,0,1.187.838.838,0,0,1-.594.245A.833.833,0,0,1-546.656,30.47Zm23.984-19.193v-1.8a.667.667,0,0,0-.667-.667h-6.345a.667.667,0,0,1-.667-.668V3.8a.667.667,0,0,1,.667-.668h6.345a.667.667,0,0,0,.667-.666V.669A.668.668,0,0,1-521.6.136l7.013,5.3a.668.668,0,0,1,0,1.065l-7.013,5.3a.658.658,0,0,1-.4.137A.668.668,0,0,1-522.671,11.276Z" transform="translate(1210 3833)" stroke="rgba(0,0,0,0)" stroke-width="1" fill="url(#linear-gradient)"/>
  </g>
</svg>
