<svg xmlns="http://www.w3.org/2000/svg" xmlns:xlink="http://www.w3.org/1999/xlink" width="1920" height="1080" viewBox="0 0 1920 1080">
  <defs>
    <linearGradient id="linear-gradient" x1="0.961" y1="0.946" x2="0.028" y2="0.044" gradientUnits="objectBoundingBox">
      <stop offset="0" stop-color="#00b5ff"/>
      <stop offset="1" stop-color="#0073b9"/>
    </linearGradient>
    <clipPath id="clip-path">
      <rect id="Rectangle_19" data-name="Rectangle 19" width="1920" height="1080" transform="translate(446 -1376)" fill="url(#linear-gradient)"/>
    </clipPath>
  </defs>
  <g id="main-bg" transform="translate(-446 1376)" clip-path="url(#clip-path)">
    <g id="Group_72" data-name="Group 72" transform="translate(-557 -4011)">
      <g id="Group_63" data-name="Group 63" transform="translate(1082 2655)">
        <line id="Line_3" data-name="Line 3" x1="106.998" y2="106.998" transform="translate(528.913 84.522)" fill="none" stroke="#fff" stroke-linecap="round" stroke-miterlimit="10" stroke-width="1"/>
        <line id="Line_4" data-name="Line 4" x1="57.22" y2="57.22" transform="translate(762.155 410.891)" fill="none" stroke="#fff" stroke-linecap="round" stroke-miterlimit="10" stroke-width="1" opacity="0.3"/>
        <line id="Line_5" data-name="Line 5" x1="35.703" y2="35.703" transform="translate(753.209 789.209)" fill="none" stroke="#fff" stroke-linecap="round" stroke-miterlimit="10" stroke-width="1" opacity="0.3"/>
        <line id="Line_6" data-name="Line 6" x1="149.68" y2="148.775" transform="translate(1310.5 277.997)" fill="none" stroke="#fff" stroke-linecap="round" stroke-miterlimit="10" stroke-width="1" opacity="0.3"/>
        <line id="Line_7" data-name="Line 7" x1="53.764" y2="53.764" transform="translate(290.849 913.28)" fill="none" stroke="#fff" stroke-linecap="round" stroke-miterlimit="10" stroke-width="1"/>
        <line id="Line_8" data-name="Line 8" x1="106.998" y2="106.998" transform="translate(320.107 0)" fill="none" stroke="#fff" stroke-linecap="round" stroke-miterlimit="10" stroke-width="1"/>
        <line id="Line_9" data-name="Line 9" x1="106.998" y2="106.998" transform="translate(0 299.45)" fill="none" stroke="#fff" stroke-linecap="round" stroke-miterlimit="10" stroke-width="1"/>
        <line id="Line_10" data-name="Line 10" x1="106.998" y2="106.998" transform="translate(68.655 912.357)" fill="none" stroke="#fff" stroke-linecap="round" stroke-miterlimit="10" stroke-width="1"/>
        <line id="Line_11" data-name="Line 11" x1="106.998" y2="106.998" transform="translate(1004.846 357.707)" fill="none" stroke="#fff" stroke-linecap="round" stroke-miterlimit="10" stroke-width="1" opacity="0.3"/>
        <line id="Line_15" data-name="Line 15" x1="106.998" y2="106.998" transform="translate(1616 53.235)" fill="none" stroke="#fff" stroke-linecap="round" stroke-miterlimit="10" stroke-width="1"/>
        <line id="Line_12" data-name="Line 12" x1="56.502" y2="56.572" transform="translate(1192.5 982.357)" fill="none" stroke="#fff" stroke-linecap="round" stroke-miterlimit="10" stroke-width="1" opacity="0.3"/>
        <line id="Line_17" data-name="Line 17" x1="106.998" y2="106.998" transform="translate(1655.005 854.357)" fill="none" stroke="#fff" stroke-linecap="round" stroke-miterlimit="10" stroke-width="1"/>
        <line id="Line_13" data-name="Line 13" x1="106.998" y2="106.998" transform="translate(1048.002 60.42)" fill="none" stroke="#fff" stroke-linecap="round" stroke-miterlimit="10" stroke-width="1" opacity="0.3"/>
        <line id="Line_16" data-name="Line 16" x1="106.998" y2="106.998" transform="translate(1407.002 616.162)" fill="none" stroke="#fff" stroke-linecap="round" stroke-miterlimit="10" stroke-width="1" opacity="0.3"/>
        <line id="Line_14" data-name="Line 14" x1="106.998" y2="106.998" transform="translate(401.077 933.002)" fill="none" stroke="#fff" stroke-linecap="round" stroke-miterlimit="10" stroke-width="1" opacity="0.3"/>
        <circle id="Ellipse_10" data-name="Ellipse 10" cx="29.603" cy="29.603" r="29.603" transform="translate(315 569.942)" fill="none" stroke="#fff" stroke-miterlimit="10" stroke-width="2" opacity="0.5"/>
        <circle id="Ellipse_14" data-name="Ellipse 14" cx="29.603" cy="29.603" r="29.603" transform="translate(1355.853 956.496)" fill="none" stroke="#fff" stroke-miterlimit="10" stroke-width="2" opacity="0.5"/>
        <circle id="Ellipse_13" data-name="Ellipse 13" cx="29.603" cy="29.603" r="29.603" transform="translate(1375.793 42.188)" fill="none" stroke="#fff" stroke-miterlimit="10" stroke-width="2" opacity="0.5"/>
        <path id="Path_54" data-name="Path 54" d="M565.5,431.689a9.1,9.1,0,1,1-9.1-9.1A9.1,9.1,0,0,1,565.5,431.689Z" transform="translate(106.164 598.274)" fill="none" stroke="#fff" stroke-miterlimit="10" stroke-width="2" opacity="0.5"/>
        <path id="Path_58" data-name="Path 58" d="M565.5,431.689a9.1,9.1,0,1,1-9.1-9.1A9.1,9.1,0,0,1,565.5,431.689Z" transform="translate(1098.164 597.274)" fill="none" stroke="#fff" stroke-miterlimit="10" stroke-width="2" opacity="0.5"/>
        <path id="Path_59" data-name="Path 59" d="M565.5,431.689a9.1,9.1,0,1,1-9.1-9.1A9.1,9.1,0,0,1,565.5,431.689Z" transform="translate(1116.164 -15.431)" fill="none" stroke="#fff" stroke-miterlimit="10" stroke-width="2" opacity="0.5"/>
        <circle id="Ellipse_11" data-name="Ellipse 11" cx="9.103" cy="9.103" r="9.103" transform="translate(1024.302 676.165)" fill="none" stroke="#fff" stroke-miterlimit="10" stroke-width="2" opacity="0.5"/>
        <path id="Path_55" data-name="Path 55" d="M692.085,220.587a5.648,5.648,0,1,1-5.649-5.649A5.647,5.647,0,0,1,692.085,220.587Z" transform="translate(207.877 255.329)" fill="none" stroke="#fff" stroke-miterlimit="10" stroke-width="1.241" opacity="0.15"/>
        <path id="Path_56" data-name="Path 56" d="M570.668,318.311a5.648,5.648,0,1,1-5.649-5.649A5.649,5.649,0,0,1,570.668,318.311Z" transform="translate(85.369 370.073)" fill="none" stroke="#fff" stroke-miterlimit="10" stroke-width="1.241" opacity="0.3"/>
        <circle id="Ellipse_12" data-name="Ellipse 12" cx="9.103" cy="9.103" r="9.103" transform="translate(123.952 692.848)" fill="none" stroke="#fff" stroke-miterlimit="10" stroke-width="2" opacity="0.5"/>
        <path id="Path_57" data-name="Path 57" d="M434.435,123.765a9.1,9.1,0,1,1-9.1-9.1A9.1,9.1,0,0,1,434.435,123.765Z" transform="translate(6.307 92.282)" fill="none" stroke="#fff" stroke-miterlimit="10" stroke-width="2" opacity="0.5"/>
      </g>
    </g>
  </g>
</svg>
