<svg xmlns="http://www.w3.org/2000/svg" xmlns:xlink="http://www.w3.org/1999/xlink" width="60" height="60" viewBox="0 0 60 60">
  <defs>
    <clipPath id="clip-path">
      <rect id="Rectangle_95" data-name="Rectangle 95" width="60" height="60" transform="translate(655 3664)" fill="#fff" stroke="#707070" stroke-width="1"/>
    </clipPath>
    <linearGradient id="linear-gradient" x1="0.5" x2="0.5" y2="1" gradientUnits="objectBoundingBox">
      <stop offset="0" stop-color="#00b5ff"/>
      <stop offset="1" stop-color="#0073b9"/>
    </linearGradient>
  </defs>
  <g id="icon-right-003" transform="translate(-655 -3664)" clip-path="url(#clip-path)">
    <path id="Union_28" data-name="Union 28" d="M-550.935,58.892A4.069,4.069,0,0,1-555,54.829V4.063A4.069,4.069,0,0,1-550.935,0h51.871A4.068,4.068,0,0,1-495,4.063V54.829a4.068,4.068,0,0,1-4.064,4.063Zm-2.471-4.063a2.473,2.473,0,0,0,2.471,2.47h51.871a2.472,2.472,0,0,0,2.471-2.47V11.45h-56.813Zm0-50.766V9.857h56.813V4.063a2.473,2.473,0,0,0-2.471-2.47h-51.871A2.473,2.473,0,0,0-553.406,4.063ZM-513.086,47.4a.43.43,0,0,0-.394-.252h-7.6a.538.538,0,0,1-.326-.11l-1.409-1.077a.537.537,0,0,1-.212-.428.538.538,0,0,1,.212-.427l1.409-1.076a.535.535,0,0,1,.327-.11h7.6a.427.427,0,0,0,.393-.251,4.632,4.632,0,0,1,4.615-2.738,4.652,4.652,0,0,1,4.234,4.493,4.625,4.625,0,0,1-4.621,4.729A4.634,4.634,0,0,1-513.086,47.4Zm5.1-2.935V46.6a.856.856,0,0,0,.856.856.856.856,0,0,0,.856-.856V44.467a.856.856,0,0,0-.856-.856A.856.856,0,0,0-507.986,44.467Zm-27.84,2.935a.429.429,0,0,0-.394-.252h-7.6a.538.538,0,0,1-.326-.11l-1.41-1.077a.538.538,0,0,1-.211-.428.54.54,0,0,1,.211-.427l1.41-1.076a.533.533,0,0,1,.326-.11h7.6a.429.429,0,0,0,.394-.251,4.63,4.63,0,0,1,4.615-2.738,4.653,4.653,0,0,1,4.234,4.493,4.627,4.627,0,0,1-4.621,4.729A4.633,4.633,0,0,1-535.826,47.4Zm5.1-2.935V46.6a.855.855,0,0,0,.855.856.856.856,0,0,0,.856-.856V44.467a.856.856,0,0,0-.856-.856A.855.855,0,0,0-530.726,44.467Zm17.64-8.536a.43.43,0,0,0-.394-.252h-7.6a.534.534,0,0,1-.326-.111l-1.409-1.076a.537.537,0,0,1-.212-.427.537.537,0,0,1,.212-.428l1.409-1.076a.535.535,0,0,1,.327-.11h7.6a.427.427,0,0,0,.393-.251,4.63,4.63,0,0,1,4.615-2.738,4.652,4.652,0,0,1,4.234,4.492,4.625,4.625,0,0,1-4.621,4.729A4.634,4.634,0,0,1-513.086,35.932Zm5.1-2.936v2.138a.856.856,0,0,0,.856.856.856.856,0,0,0,.856-.856V33a.856.856,0,0,0-.856-.855A.856.856,0,0,0-507.986,33Zm-27.84,2.936a.429.429,0,0,0-.394-.252h-7.6a.534.534,0,0,1-.326-.111l-1.41-1.076a.538.538,0,0,1-.211-.427.538.538,0,0,1,.211-.428l1.41-1.076a.533.533,0,0,1,.326-.11h7.6a.429.429,0,0,0,.394-.251,4.629,4.629,0,0,1,4.615-2.738,4.653,4.653,0,0,1,4.234,4.492,4.626,4.626,0,0,1-4.621,4.729A4.633,4.633,0,0,1-535.826,35.932Zm5.1-2.936v2.138a.855.855,0,0,0,.855.856.856.856,0,0,0,.856-.856V33a.856.856,0,0,0-.856-.855A.855.855,0,0,0-530.726,33Zm17.64-8.535a.43.43,0,0,0-.394-.252h-7.6a.534.534,0,0,1-.326-.111l-1.409-1.076a.537.537,0,0,1-.212-.427.537.537,0,0,1,.212-.428l1.409-1.076a.535.535,0,0,1,.327-.11h7.6a.427.427,0,0,0,.393-.251,4.63,4.63,0,0,1,4.615-2.738,4.652,4.652,0,0,1,4.234,4.492,4.625,4.625,0,0,1-4.621,4.729A4.634,4.634,0,0,1-513.086,24.461Zm5.1-2.936v2.137a.857.857,0,0,0,.856.856.856.856,0,0,0,.856-.856V21.525a.855.855,0,0,0-.856-.855A.856.856,0,0,0-507.986,21.525Zm-27.84,2.936a.429.429,0,0,0-.394-.252h-7.6a.534.534,0,0,1-.326-.111l-1.41-1.076a.538.538,0,0,1-.211-.427.538.538,0,0,1,.211-.428l1.41-1.076a.533.533,0,0,1,.326-.11h7.6a.429.429,0,0,0,.394-.251,4.629,4.629,0,0,1,4.615-2.738,4.653,4.653,0,0,1,4.234,4.492,4.626,4.626,0,0,1-4.621,4.729A4.633,4.633,0,0,1-535.826,24.461Zm5.1-2.936v2.137a.856.856,0,0,0,.855.856.856.856,0,0,0,.856-.856V21.525a.855.855,0,0,0-.856-.855A.855.855,0,0,0-530.726,21.525Zm26.57-15.67a2.273,2.273,0,0,1,2.272-2.27,2.272,2.272,0,0,1,2.271,2.27,2.273,2.273,0,0,1-2.271,2.271A2.274,2.274,0,0,1-504.156,5.855Zm1.594,0a.678.678,0,0,0,.678.677.678.678,0,0,0,.678-.677.678.678,0,0,0-.678-.677A.678.678,0,0,0-502.562,5.855Zm-7.606,0a2.273,2.273,0,0,1,2.272-2.27,2.272,2.272,0,0,1,2.271,2.27A2.273,2.273,0,0,1-507.9,8.126,2.274,2.274,0,0,1-510.168,5.855Zm1.594,0a.678.678,0,0,0,.678.677.677.677,0,0,0,.677-.677.677.677,0,0,0-.677-.677A.678.678,0,0,0-508.574,5.855Zm-41.736,0a2.273,2.273,0,0,1,2.272-2.27,2.273,2.273,0,0,1,2.271,2.27,2.273,2.273,0,0,1-2.271,2.271A2.274,2.274,0,0,1-550.31,5.855Zm1.594,0a.678.678,0,0,0,.678.677.677.677,0,0,0,.677-.677.677.677,0,0,0-.677-.677A.678.678,0,0,0-548.716,5.855Z" transform="translate(1210 3665)" stroke="rgba(0,0,0,0)" stroke-width="1" fill="url(#linear-gradient)"/>
  </g>
</svg>
