<svg xmlns="http://www.w3.org/2000/svg" xmlns:xlink="http://www.w3.org/1999/xlink" width="60" height="60" viewBox="0 0 60 60">
  <defs>
    <clipPath id="clip-path">
      <rect id="Rectangle_90" data-name="Rectangle 90" width="60" height="60" transform="translate(70 3664)" fill="#fff" stroke="#707070" stroke-width="1"/>
    </clipPath>
    <linearGradient id="linear-gradient" x1="0.5" x2="0.5" y2="1" gradientUnits="objectBoundingBox">
      <stop offset="0" stop-color="#00b5ff"/>
      <stop offset="1" stop-color="#0073b9"/>
    </linearGradient>
  </defs>
  <g id="icon-left-003" transform="translate(-70 -3664)" clip-path="url(#clip-path)">
    <path id="Union_23" data-name="Union 23" d="M-532.944,48.452a1.377,1.377,0,0,1-1.376-1.375V40.316a5.537,5.537,0,0,1,4.6-5.45,5.248,5.248,0,0,1-1.153-3.292,5.216,5.216,0,0,1,1.63-3.809,5.226,5.226,0,0,1,3.884-1.452,5.288,5.288,0,0,1,5.015,5.064,5.286,5.286,0,0,1-1.156,3.487,5.536,5.536,0,0,1,4.6,5.45v6.762a1.377,1.377,0,0,1-1.375,1.375Zm.18-8.137V46.9h14.31V40.316a3.975,3.975,0,0,0-3.971-3.971h-1.131a.779.779,0,0,1-.756-.595.778.778,0,0,1,.4-.876,3.729,3.729,0,0,0,2.01-3.44,3.726,3.726,0,0,0-3.531-3.568,3.69,3.69,0,0,0-2.739,1.022,3.681,3.681,0,0,0-1.148,2.685,3.7,3.7,0,0,0,2.014,3.3.778.778,0,0,1,.4.875.778.778,0,0,1-.756.595h-1.131A3.977,3.977,0,0,0-532.764,40.316Zm-20.861,8.137A1.377,1.377,0,0,1-555,47.077V40.316a5.537,5.537,0,0,1,4.6-5.45,5.248,5.248,0,0,1-1.153-3.292,5.216,5.216,0,0,1,1.63-3.809,5.225,5.225,0,0,1,3.884-1.452,5.288,5.288,0,0,1,5.015,5.064,5.282,5.282,0,0,1-1.156,3.487,5.536,5.536,0,0,1,4.605,5.45v6.762a1.376,1.376,0,0,1-1.375,1.375Zm.181-8.137V46.9h14.31V40.316a3.975,3.975,0,0,0-3.971-3.971h-1.131a.781.781,0,0,1-.757-.595.78.78,0,0,1,.4-.876,3.73,3.73,0,0,0,2.011-3.44,3.725,3.725,0,0,0-3.531-3.568,3.689,3.689,0,0,0-2.739,1.022A3.68,3.68,0,0,0-550,31.574a3.7,3.7,0,0,0,2.014,3.3.78.78,0,0,1,.4.875.779.779,0,0,1-.756.595h-1.132A3.976,3.976,0,0,0-553.444,40.316Zm40.386,8.136a.777.777,0,0,1-.779-.778V.778A.778.778,0,0,1-513.059,0h17.114a.777.777,0,0,1,.778.778v46.9a.777.777,0,0,1-.778.778Zm.778-1.555h15.558V1.556h-15.558Zm8.429-18.694a2.991,2.991,0,0,1,2.987-2.987,2.99,2.99,0,0,1,2.987,2.987,2.99,2.99,0,0,1-2.987,2.988A2.991,2.991,0,0,1-503.852,28.2Zm1.556,0a1.432,1.432,0,0,0,1.431,1.431,1.432,1.432,0,0,0,1.431-1.431,1.432,1.432,0,0,0-1.431-1.431A1.432,1.432,0,0,0-502.3,28.2Zm-7.17,1.333a.777.777,0,0,1,0-1.1l8.841-8.841a.777.777,0,0,1,1.1,0,.78.78,0,0,1,0,1.1l-8.841,8.84a.771.771,0,0,1-.549.228A.775.775,0,0,1-509.466,29.536Zm-1.66-8.608a2.991,2.991,0,0,1,2.987-2.987,2.99,2.99,0,0,1,2.987,2.987,2.991,2.991,0,0,1-2.987,2.988A2.991,2.991,0,0,1-511.125,20.929Zm1.556,0a1.433,1.433,0,0,0,1.431,1.431,1.433,1.433,0,0,0,1.432-1.431,1.433,1.433,0,0,0-1.432-1.431A1.432,1.432,0,0,0-509.569,20.93Zm-23.375,1.217a1.378,1.378,0,0,1-1.376-1.375V14.009a5.537,5.537,0,0,1,4.6-5.45,5.248,5.248,0,0,1-1.153-3.293,5.223,5.223,0,0,1,1.63-3.81A5.222,5.222,0,0,1-525.362.006a5.289,5.289,0,0,1,5.015,5.065A5.283,5.283,0,0,1-521.5,8.558a5.537,5.537,0,0,1,4.6,5.451v6.762a1.377,1.377,0,0,1-1.375,1.375Zm.18-8.137V20.59h14.31V14.009a3.976,3.976,0,0,0-3.971-3.972h-1.131a.778.778,0,0,1-.756-.595.776.776,0,0,1,.4-.875,3.73,3.73,0,0,0,2.01-3.44,3.725,3.725,0,0,0-3.531-3.568,3.683,3.683,0,0,0-2.739,1.022,3.677,3.677,0,0,0-1.148,2.684,3.7,3.7,0,0,0,2.014,3.3.779.779,0,0,1,.4.876.778.778,0,0,1-.756.595h-1.131A3.976,3.976,0,0,0-532.764,14.009Zm-20.861,8.137A1.377,1.377,0,0,1-555,20.771V14.009a5.537,5.537,0,0,1,4.6-5.45,5.25,5.25,0,0,1-1.153-3.293,5.223,5.223,0,0,1,1.63-3.81A5.22,5.22,0,0,1-546.042.006a5.289,5.289,0,0,1,5.015,5.065,5.279,5.279,0,0,1-1.156,3.487,5.537,5.537,0,0,1,4.605,5.451v6.762a1.377,1.377,0,0,1-1.375,1.375Zm.181-8.137V20.59h14.31V14.009a3.976,3.976,0,0,0-3.971-3.972h-1.131a.78.78,0,0,1-.757-.595.779.779,0,0,1,.4-.875,3.73,3.73,0,0,0,2.011-3.44,3.725,3.725,0,0,0-3.531-3.568,3.682,3.682,0,0,0-2.739,1.022A3.677,3.677,0,0,0-550,5.267a3.7,3.7,0,0,0,2.014,3.3.78.78,0,0,1,.4.876.779.779,0,0,1-.756.595h-1.132A3.976,3.976,0,0,0-553.444,14.009Z" transform="translate(625 3670)" stroke="rgba(0,0,0,0)" stroke-width="1" fill="url(#linear-gradient)"/>
  </g>
</svg>
