<svg xmlns="http://www.w3.org/2000/svg" xmlns:xlink="http://www.w3.org/1999/xlink" width="60.382" height="68.001" viewBox="0 0 60.382 68.001">
  <defs>
    <filter id="icon-02" x="0" y="0" width="60.382" height="68.001" filterUnits="userSpaceOnUse">
      <feOffset dy="3" input="SourceAlpha"/>
      <feGaussianBlur stdDeviation="3" result="blur"/>
      <feFlood flood-opacity="0.161"/>
      <feComposite operator="in" in2="blur"/>
      <feComposite in="SourceGraphic"/>
    </filter>
  </defs>
  <g transform="matrix(1, 0, 0, 1, 0, 0)" filter="url(#icon-02)">
    <path id="icon-02-2" data-name="icon-02" d="M-5870.246,50a.559.559,0,0,1-.564-.564V46.253a2.629,2.629,0,0,1,1.84-2.506,2.529,2.529,0,0,1-.35-1.287,2.514,2.514,0,0,1,2.506-2.5,2.507,2.507,0,0,1,2.5,2.5,2.529,2.529,0,0,1-.35,1.287,2.64,2.64,0,0,1,1.852,2.506v3.183a.56.56,0,0,1-.564.564Zm.553-3.747v2.618h5.745l-.012-2.618a1.489,1.489,0,0,0-1.489-1.491h-.486a.559.559,0,0,1-.553-.429.569.569,0,0,1,.294-.632,1.372,1.372,0,0,0,.745-1.229,1.383,1.383,0,0,0-1.377-1.377,1.382,1.382,0,0,0-1.377,1.377,1.373,1.373,0,0,0,.745,1.229.562.562,0,0,1,.294.632.579.579,0,0,1-.553.429h-.486A1.488,1.488,0,0,0-5869.693,46.253Zm16.636-7.145a.559.559,0,0,1-.564-.564V35.349a2.628,2.628,0,0,1,1.84-2.5,2.543,2.543,0,0,1-.35-1.287,2.515,2.515,0,0,1,2.506-2.506,2.507,2.507,0,0,1,2.506,2.506,2.529,2.529,0,0,1-.35,1.287,2.638,2.638,0,0,1,1.852,2.517v3.183a.559.559,0,0,1-.564.564Zm.564-3.747V37.98h5.746l-.012-2.618a1.488,1.488,0,0,0-1.489-1.49h-.485a.561.561,0,0,1-.554-.429.569.569,0,0,1,.294-.632,1.375,1.375,0,0,0,.745-1.231,1.382,1.382,0,0,0-1.377-1.377A1.382,1.382,0,0,0-5851,31.58a1.374,1.374,0,0,0,.746,1.231.561.561,0,0,1,.292.632.578.578,0,0,1-.552.429H-5851A1.488,1.488,0,0,0-5852.493,35.361Zm-34.943,3.747a.559.559,0,0,1-.564-.564V35.349a2.628,2.628,0,0,1,1.84-2.5,2.529,2.529,0,0,1-.35-1.287A2.515,2.515,0,0,1-5884,29.051a2.507,2.507,0,0,1,2.5,2.506,2.529,2.529,0,0,1-.35,1.287A2.664,2.664,0,0,1-5880,35.361v3.183a.559.559,0,0,1-.564.564Zm.553-3.747V37.98h5.733V35.361a1.487,1.487,0,0,0-1.49-1.49h-.486a.569.569,0,0,1-.553-.429.567.567,0,0,1,.294-.632,1.375,1.375,0,0,0,.745-1.231,1.382,1.382,0,0,0-1.377-1.377,1.383,1.383,0,0,0-1.377,1.377,1.375,1.375,0,0,0,.745,1.231.561.561,0,0,1,.294.632.579.579,0,0,1-.553.429h-.486A1.488,1.488,0,0,0-5886.883,35.361Zm19.5,2.889V35.88a10.91,10.91,0,0,1-8.59-4.965l-2.054,1.185a.511.511,0,0,1-.282.078.557.557,0,0,1-.485-.282.556.556,0,0,1,.2-.767l2.054-1.185a10.8,10.8,0,0,1-1.2-4.955,10.787,10.787,0,0,1,1.2-4.955l-2.054-1.185a.558.558,0,0,1-.2-.768.556.556,0,0,1,.767-.2l2.054,1.185a10.908,10.908,0,0,1,8.59-4.967v-2.37a.558.558,0,0,1,.564-.564.558.558,0,0,1,.563.564V14.1a10.908,10.908,0,0,1,8.59,4.967l2.054-1.185a.557.557,0,0,1,.767.2.556.556,0,0,1-.2.768l-2.054,1.185a10.78,10.78,0,0,1,1.2,4.955,10.789,10.789,0,0,1-1.2,4.955l2.054,1.185a.554.554,0,0,1,.2.767.558.558,0,0,1-.485.282.509.509,0,0,1-.282-.078l-2.054-1.185a10.91,10.91,0,0,1-8.59,4.965v2.37a.558.558,0,0,1-.563.564A.558.558,0,0,1-5867.379,38.25ZM-5876.6,25a9.8,9.8,0,0,0,9.787,9.785A9.8,9.8,0,0,0-5857.029,25a9.8,9.8,0,0,0-9.786-9.785A9.8,9.8,0,0,0-5876.6,25Zm5.711,5.169a.317.317,0,0,1-.327-.315V26.231a2.6,2.6,0,0,1,2.641-2.55h.632a2.413,2.413,0,0,1-1.355-2.146,2.45,2.45,0,0,1,2.608-2.4,2.471,2.471,0,0,1,2.369,2.314,2.423,2.423,0,0,1-1.354,2.236h.632a2.587,2.587,0,0,1,2.629,2.55v3.623a.325.325,0,0,1-.327.315Zm17.833-9.231a.559.559,0,0,1-.564-.564V17.19a2.629,2.629,0,0,1,1.84-2.506,2.539,2.539,0,0,1-.35-1.287,2.515,2.515,0,0,1,2.506-2.5,2.507,2.507,0,0,1,2.506,2.5,2.525,2.525,0,0,1-.35,1.287,2.635,2.635,0,0,1,1.852,2.506v3.183a.559.559,0,0,1-.564.564Zm.564-3.747v2.618h5.746l-.012-2.618a1.488,1.488,0,0,0-1.489-1.49h-.485a.562.562,0,0,1-.554-.43.568.568,0,0,1,.294-.631,1.377,1.377,0,0,0,.745-1.231,1.382,1.382,0,0,0-1.377-1.377A1.382,1.382,0,0,0-5851,13.409a1.375,1.375,0,0,0,.746,1.231.56.56,0,0,1,.292.631.579.579,0,0,1-.552.43H-5851A1.488,1.488,0,0,0-5852.493,17.19Zm-34.943,3.747a.559.559,0,0,1-.564-.564V17.19a2.629,2.629,0,0,1,1.84-2.506,2.525,2.525,0,0,1-.35-1.287,2.515,2.515,0,0,1,2.506-2.5,2.507,2.507,0,0,1,2.5,2.5,2.525,2.525,0,0,1-.35,1.287A2.661,2.661,0,0,1-5880,17.19v3.183a.559.559,0,0,1-.564.564Zm.553-3.747v2.618h5.733V17.19a1.487,1.487,0,0,0-1.49-1.49h-.486a.57.57,0,0,1-.553-.43.566.566,0,0,1,.294-.631,1.377,1.377,0,0,0,.745-1.231,1.382,1.382,0,0,0-1.377-1.377,1.383,1.383,0,0,0-1.377,1.377,1.376,1.376,0,0,0,.745,1.231.559.559,0,0,1,.294.631.581.581,0,0,1-.553.43h-.486A1.488,1.488,0,0,0-5886.883,17.19Zm16.637-7.145a.543.543,0,0,1-.554-.564V6.3a2.631,2.631,0,0,1,1.84-2.506,2.534,2.534,0,0,1-.35-1.286A2.515,2.515,0,0,1-5866.8,0a2.507,2.507,0,0,1,2.506,2.506,2.52,2.52,0,0,1-.35,1.286,2.642,2.642,0,0,1,1.84,2.506V9.481a.559.559,0,0,1-.564.564Zm.563-3.747-.01,2.618h5.745V6.3a1.488,1.488,0,0,0-1.491-1.49h-.485a.559.559,0,0,1-.553-.429.569.569,0,0,1,.293-.632,1.375,1.375,0,0,0,.745-1.231,1.383,1.383,0,0,0-1.376-1.377,1.383,1.383,0,0,0-1.377,1.377,1.375,1.375,0,0,0,.745,1.231.56.56,0,0,1,.292.632.577.577,0,0,1-.553.429h-.484A1.488,1.488,0,0,0-5869.683,6.3Z" transform="translate(5897 6)" fill="#fff"/>
  </g>
</svg>
