<svg xmlns="http://www.w3.org/2000/svg" xmlns:xlink="http://www.w3.org/1999/xlink" width="68" height="61.093" viewBox="0 0 68 61.093">
  <defs>
    <filter id="icon-05" x="0" y="0" width="68" height="61.093" filterUnits="userSpaceOnUse">
      <feOffset dy="3" input="SourceAlpha"/>
      <feGaussianBlur stdDeviation="3" result="blur"/>
      <feFlood flood-opacity="0.161"/>
      <feComposite operator="in" in2="blur"/>
      <feComposite in="SourceGraphic"/>
    </filter>
  </defs>
  <g transform="matrix(1, 0, 0, 1, 0, 0)" filter="url(#icon-05)">
    <path id="icon-05-2" data-name="icon-05" d="M-5885.682,43.092A2.319,2.319,0,0,1-5888,40.775V2.391a2.375,2.375,0,0,1,2.091-2.378,2.271,2.271,0,0,1,1.781.585,2.318,2.318,0,0,1,.753,1.71V38.373a.082.082,0,0,0,.083.084h2.151V20.663a1.224,1.224,0,0,1,1.219-1.219h3.764a.592.592,0,0,1,.6.6.592.592,0,0,1-.6.6h-3.764a.025.025,0,0,0-.024.024V38.457h5.162v-14.9a.592.592,0,0,1,.6-.6.592.592,0,0,1,.6.6V38.445h5.162V29.613a.592.592,0,0,1,.6-.6.592.592,0,0,1,.6.6v8.832h5.162V31.657a.592.592,0,0,1,.6-.6.592.592,0,0,1,.6.6v6.789h5.163V30.271a.591.591,0,0,1,.6-.6.591.591,0,0,1,.6.6v8.175h5.163V34.311a.592.592,0,0,1,.6-.6.591.591,0,0,1,.6.6v4.135h.862a2.363,2.363,0,0,1,2.366,2.115,2.269,2.269,0,0,1-.585,1.781,2.319,2.319,0,0,1-1.71.752ZM-5886.8,2.379V40.762a1.122,1.122,0,0,0,1.123,1.125h38.454a1.106,1.106,0,0,0,.825-.371,1.049,1.049,0,0,0,.275-.872,1.162,1.162,0,0,0-1.182-1h-35.982a1.28,1.28,0,0,1-1.278-1.278V2.308a1.148,1.148,0,0,0-.371-.825,1.089,1.089,0,0,0-.752-.287h-.108A1.16,1.16,0,0,0-5886.8,2.379Zm43.031,35.145-6.094-6.094a2.544,2.544,0,0,1-.729-2.116l-2.259-2.258a14.106,14.106,0,0,1-8.042,2.509,14.2,14.2,0,0,1-14.185-14.184A14.193,14.193,0,0,1-5860.9,1.2a14.2,14.2,0,0,1,14.184,14.184,14.106,14.106,0,0,1-2.509,8.042l2.258,2.259a2.762,2.762,0,0,1,.312-.024,2.564,2.564,0,0,1,1.816.752l6.094,6.094a2.58,2.58,0,0,1-.012,3.634l-1.386,1.386a2.559,2.559,0,0,1-1.816.752A2.56,2.56,0,0,1-5843.774,37.525Zm-3.848-10.277-1.386,1.386a1.363,1.363,0,0,0,0,1.936l6.1,6.1a1.363,1.363,0,0,0,1.936,0l1.386-1.386a1.362,1.362,0,0,0,0-1.936l-6.1-6.1a1.381,1.381,0,0,0-.967-.395A1.338,1.338,0,0,0-5847.622,27.247Zm-26.254-11.878a13,13,0,0,0,12.99,12.989,13,13,0,0,0,12.99-12.989,13,13,0,0,0-12.99-12.99A13,13,0,0,0-5873.876,15.369Zm22,10.933,1.779,1.781a2.164,2.164,0,0,1,.251-.3l1.386-1.386a2.084,2.084,0,0,1,.3-.251l-1.779-1.781A14.887,14.887,0,0,1-5851.875,26.3Zm-19.694-10.933a10.7,10.7,0,0,1,10.684-10.684A10.7,10.7,0,0,1-5850.2,15.369a10.7,10.7,0,0,1-10.684,10.684A10.7,10.7,0,0,1-5871.569,15.369Zm1.2,0a9.5,9.5,0,0,0,9.488,9.488,9.519,9.519,0,0,0,9.488-9.488,9.5,9.5,0,0,0-9.488-9.488A9.5,9.5,0,0,0-5870.374,15.369Zm4.254,5.222a7.392,7.392,0,0,1,0-10.444,7.33,7.33,0,0,1,5.222-2.163,7.332,7.332,0,0,1,5.222,2.163,7.393,7.393,0,0,1,0,10.444.554.554,0,0,1-.407.179.56.56,0,0,1-.418-.179.591.591,0,0,1,0-.848,6.2,6.2,0,0,0,0-8.76,6.154,6.154,0,0,0-4.386-1.816,6.153,6.153,0,0,0-4.386,1.816,6.2,6.2,0,0,0,0,8.76.591.591,0,0,1,0,.848.6.6,0,0,1-.424.18A.6.6,0,0,1-5866.12,20.592Zm3.345-5.354a1.748,1.748,0,0,1,1.745-1.745,1.738,1.738,0,0,1,.956.287l2.15-1.469a.677.677,0,0,1,.945.179.678.678,0,0,1-.18.944l-2.163,1.469a1.567,1.567,0,0,1,.037.347,1.747,1.747,0,0,1-1.745,1.745A1.758,1.758,0,0,1-5862.774,15.238Z" transform="translate(5897 6)" fill="#fff"/>
  </g>
</svg>
