<svg xmlns="http://www.w3.org/2000/svg" xmlns:xlink="http://www.w3.org/1999/xlink" width="60" height="60" viewBox="0 0 60 60">
  <defs>
    <clipPath id="clip-path">
      <rect id="Rectangle_88" data-name="Rectangle 88" width="60" height="60" transform="translate(70 3504)" fill="#fff" stroke="#707070" stroke-width="1"/>
    </clipPath>
    <linearGradient id="linear-gradient" x1="0.5" x2="0.5" y2="1" gradientUnits="objectBoundingBox">
      <stop offset="0" stop-color="#00b5ff"/>
      <stop offset="1" stop-color="#0073b9"/>
    </linearGradient>
  </defs>
  <g id="icon-left-001" transform="translate(-70 -3504)" clip-path="url(#clip-path)">
    <path id="Union_21" data-name="Union 21" d="M-550.945,47.97A4.059,4.059,0,0,1-555,43.916V9.146a4.06,4.06,0,0,1,4.055-4.055h14.14a.8.8,0,0,1,.8.795.8.8,0,0,1-.8.8h-14.14a2.467,2.467,0,0,0-2.465,2.464V14.93h56.676V9.146A2.467,2.467,0,0,0-499.2,6.682h-13.914a.8.8,0,0,1-.795-.8.8.8,0,0,1,.795-.795H-499.2a4.06,4.06,0,0,1,4.055,4.055v34.77A4.059,4.059,0,0,1-499.2,47.97Zm-2.465-4.055a2.469,2.469,0,0,0,2.465,2.465H-499.2a2.467,2.467,0,0,0,2.464-2.465V16.52H-553.41Zm29.126-.289-3.878-2.973a.649.649,0,0,1,0-1.03l3.878-2.973a.65.65,0,0,1,1.045.516v2.322a9.169,9.169,0,0,0,7.314-8.969,9.165,9.165,0,0,0-9.155-9.154,9.165,9.165,0,0,0-9.154,9.154A9.176,9.176,0,0,0-530.354,38a.8.8,0,0,1,.191,1.108.8.8,0,0,1-1.108.192,10.77,10.77,0,0,1-4.553-8.783A10.757,10.757,0,0,1-525.08,19.775a10.757,10.757,0,0,1,10.745,10.744,10.763,10.763,0,0,1-8.9,10.587v2a.65.65,0,0,1-.653.65A.64.64,0,0,1-524.284,43.627Zm-6.079-9.521A.8.8,0,0,1-530.152,33l4.278-2.9V25.225a.8.8,0,0,1,.795-.8.8.8,0,0,1,.8.8V30.52a.793.793,0,0,1-.349.657l-4.626,3.14a.8.8,0,0,1-.446.138A.8.8,0,0,1-530.364,34.105Zm26.086-23.169a2.268,2.268,0,0,1,2.266-2.266,2.268,2.268,0,0,1,2.265,2.266,2.269,2.269,0,0,1-2.265,2.266A2.269,2.269,0,0,1-504.278,10.937Zm1.59,0a.677.677,0,0,0,.676.676.677.677,0,0,0,.676-.676.677.677,0,0,0-.676-.676A.677.677,0,0,0-502.688,10.937Zm-7.588,0a2.269,2.269,0,0,1,2.266-2.266,2.268,2.268,0,0,1,2.265,2.266A2.269,2.269,0,0,1-508.01,13.2,2.269,2.269,0,0,1-510.276,10.937Zm1.59,0a.677.677,0,0,0,.676.676.677.677,0,0,0,.676-.676.677.677,0,0,0-.676-.676A.677.677,0,0,0-508.685,10.937Zm-41.636,0a2.269,2.269,0,0,1,2.266-2.266,2.268,2.268,0,0,1,2.266,2.266,2.269,2.269,0,0,1-2.266,2.266A2.269,2.269,0,0,1-550.321,10.937Zm1.59,0a.677.677,0,0,0,.676.676.677.677,0,0,0,.676-.676.677.677,0,0,0-.676-.676A.677.677,0,0,0-548.731,10.937Zm20.252,1.443-1.672-3.425h-.789A.455.455,0,0,1-531.4,8.5V2.987a.455.455,0,0,1,.455-.455h4.136V8.955h-1.012l.98,2.73a.893.893,0,0,1-.84,1.2A.892.892,0,0,1-528.479,12.38Zm8.505-.921-6.085-2.24V2.269l6.085-2.24a.454.454,0,0,1,.612.427V11.031a.455.455,0,0,1-.453.456A.458.458,0,0,1-519.974,11.459Zm1.353-7.7a1.952,1.952,0,0,1,1.951,1.952v.076a1.951,1.951,0,0,1-1.951,1.951ZM-532.762,7a.644.644,0,0,1-.643-.644V5.128a.644.644,0,0,1,.643-.644h.626V7Z" transform="translate(625 3510)" stroke="rgba(0,0,0,0)" stroke-width="1" fill="url(#linear-gradient)"/>
  </g>
</svg>
