<svg xmlns="http://www.w3.org/2000/svg" xmlns:xlink="http://www.w3.org/1999/xlink" width="68" height="64.936" viewBox="0 0 68 64.936">
  <defs>
    <filter id="icon-04" x="0" y="0" width="68" height="64.936" filterUnits="userSpaceOnUse">
      <feOffset dy="3" input="SourceAlpha"/>
      <feGaussianBlur stdDeviation="3" result="blur"/>
      <feFlood flood-opacity="0.161"/>
      <feComposite operator="in" in2="blur"/>
      <feComposite in="SourceGraphic"/>
    </filter>
  </defs>
  <g transform="matrix(1, 0, 0, 1, 0, 0)" filter="url(#icon-04)">
    <path id="icon-04-2" data-name="icon-04" d="M-5887.375,46.936a.619.619,0,0,1-.625-.625V37.256a6.481,6.481,0,0,1,5.991-6.453,6.1,6.1,0,0,1-1.751-4.3,6.164,6.164,0,0,1,6.153-6.153,6.157,6.157,0,0,1,6.153,6.153,6.151,6.151,0,0,1-1.751,4.3,6.49,6.49,0,0,1,5.979,6.453v9.055a.62.62,0,0,1-.626.625Zm25.775-.112a1.339,1.339,0,0,1-1.337-1.339V38.519a1.368,1.368,0,0,1,.211-.712,1.294,1.294,0,0,1-.211-.714V30.1a1.372,1.372,0,0,1,.211-.712,1.293,1.293,0,0,1-.211-.712V21.685a1.339,1.339,0,0,1,1.337-1.337h22.262A1.34,1.34,0,0,1-5838,21.685v6.967a1.361,1.361,0,0,1-.214.712,1.283,1.283,0,0,1,.214.712v6.991a1.366,1.366,0,0,1-.214.714,1.283,1.283,0,0,1,.214.712v6.991a1.34,1.34,0,0,1-1.338,1.339Zm-.087-8.33v6.991a.086.086,0,0,0,.087.089h22.262a.086.086,0,0,0,.087-.089V38.494a.085.085,0,0,0-.087-.087H-5861.6A.084.084,0,0,0-5861.687,38.494Zm0-8.4v6.991a.084.084,0,0,0,.087.087h22.262a.085.085,0,0,0,.087-.087V30.09a.082.082,0,0,0-.075-.087h-22.285A.092.092,0,0,0-5861.687,30.09Zm.012-8.405v6.992a.085.085,0,0,0,.075.087h22.287a.1.1,0,0,0,.075-.087V21.685a.086.086,0,0,0-.088-.087h-22.26A.086.086,0,0,0-5861.675,21.685Zm11.393,22.049a.619.619,0,0,1-.625-.625V40.883a.619.619,0,0,1,.625-.625h8.879a.62.62,0,0,1,.626.625v2.225a.62.62,0,0,1-.626.625Zm.626-1.262h7.628V41.5h-7.628ZM-5860.412,42a1.742,1.742,0,0,1,1.739-1.738A1.742,1.742,0,0,1-5856.935,42a1.742,1.742,0,0,1-1.738,1.738A1.734,1.734,0,0,1-5860.412,42Zm1.25-.012a.489.489,0,0,0,.489.488.489.489,0,0,0,.488-.488.489.489,0,0,0-.488-.489A.481.481,0,0,0-5859.161,41.984Zm8.879-6.666a.621.621,0,0,1-.625-.627V32.466a.619.619,0,0,1,.625-.625h8.879a.627.627,0,0,1,.626.625v2.225a.621.621,0,0,1-.626.627Zm.626-1.252h7.628v-.975h-7.628Zm-10.756-.488a1.742,1.742,0,0,1,1.739-1.738,1.742,1.742,0,0,1,1.738,1.738,1.743,1.743,0,0,1-1.738,1.739A1.736,1.736,0,0,1-5860.412,33.579Zm1.25,0a.489.489,0,0,0,.489.488.489.489,0,0,0,.488-.488.489.489,0,0,0-.488-.488A.488.488,0,0,0-5859.161,33.579Zm8.879-6.666a.619.619,0,0,1-.625-.625V24.063a.621.621,0,0,1,.625-.627h8.879a.621.621,0,0,1,.626.627v2.225a.62.62,0,0,1-.626.625Zm.626-1.25h7.628v-.975h-7.628Zm-10.756-.488a1.743,1.743,0,0,1,1.739-1.739,1.744,1.744,0,0,1,1.738,1.739,1.742,1.742,0,0,1-1.738,1.738A1.735,1.735,0,0,1-5860.412,25.175Zm1.25,0a.489.489,0,0,0,.489.488.489.489,0,0,0,.488-.488.489.489,0,0,0-.488-.488A.5.5,0,0,0-5859.161,25.175Zm-8.617-8.616-3.177,1.138a.632.632,0,0,1-.65-.151.625.625,0,0,1-.149-.65l1.138-3.189a8.917,8.917,0,0,1-1.351-4.74A8.982,8.982,0,0,1-5863,0a8.982,8.982,0,0,1,8.967,8.967,8.976,8.976,0,0,1-8.979,8.967A8.893,8.893,0,0,1-5867.778,16.559Zm.438-1.213a7.7,7.7,0,0,0,4.34,1.337,7.7,7.7,0,0,0,7.7-7.717,7.73,7.73,0,0,0-7.716-7.717,7.729,7.729,0,0,0-7.716,7.717,7.651,7.651,0,0,0,1.312,4.3.632.632,0,0,1,.075.562l-.8,2.239,2.239-.8a.625.625,0,0,1,.211-.038A.581.581,0,0,1-5867.34,15.346Zm2.676-3.415-2.489-2.814a1.007,1.007,0,0,1,.089-1.414,1,1,0,0,1,1.413.089l1.726,1.962,3.64-4.189a1.006,1.006,0,0,1,1.413-.1,1,1,0,0,1,.1,1.4l-4.39,5.054a.975.975,0,0,1-.75.35A1.006,1.006,0,0,1-5864.664,11.931Z" transform="translate(5897 6)" fill="#fff"/>
  </g>
</svg>
