<svg xmlns="http://www.w3.org/2000/svg" xmlns:xlink="http://www.w3.org/1999/xlink" width="66.242" height="68.001" viewBox="0 0 66.242 68.001">
  <defs>
    <filter id="icon-03" x="0" y="0" width="66.242" height="68.001" filterUnits="userSpaceOnUse">
      <feOffset dy="3" input="SourceAlpha"/>
      <feGaussianBlur stdDeviation="3" result="blur"/>
      <feFlood flood-opacity="0.161"/>
      <feComposite operator="in" in2="blur"/>
      <feComposite in="SourceGraphic"/>
    </filter>
  </defs>
  <g transform="matrix(1, 0, 0, 1, 0, 0)" filter="url(#icon-03)">
    <path id="icon-03-2" data-name="icon-03" d="M-5869.772,50a1.255,1.255,0,0,1-1.261-1.26V43.3a4.618,4.618,0,0,1,3.594-4.494,4.436,4.436,0,0,1-.81-2.55,4.363,4.363,0,0,1,1.354-3.173,4.3,4.3,0,0,1,3.234-1.213,4.421,4.421,0,0,1,4.184,4.231,4.4,4.4,0,0,1-.825,2.72,4.617,4.617,0,0,1,3.609,4.479V48.74a1.255,1.255,0,0,1-1.259,1.26Zm.279-6.688v5.148h11.229l.016-5.148a3.053,3.053,0,0,0-3.048-3.048h-.918a.784.784,0,0,1-.762-.591.784.784,0,0,1,.4-.87,2.821,2.821,0,0,0,1.54-2.629,2.852,2.852,0,0,0-2.707-2.722,2.747,2.747,0,0,0-2.1.779,2.846,2.846,0,0,0-.872,2.053,2.826,2.826,0,0,0,1.54,2.519.756.756,0,0,1,.4.87.8.8,0,0,1-.763.591h-.917A3.054,3.054,0,0,0-5869.493,43.313ZM-5886.725,50a1.255,1.255,0,0,1-1.259-1.26V43.3a4.616,4.616,0,0,1,3.592-4.494,4.446,4.446,0,0,1-.81-2.55,4.363,4.363,0,0,1,1.354-3.173,4.3,4.3,0,0,1,3.235-1.213,4.42,4.42,0,0,1,4.183,4.231,4.4,4.4,0,0,1-.823,2.72,4.617,4.617,0,0,1,3.607,4.479V48.74A1.255,1.255,0,0,1-5874.9,50Zm.279-6.688v5.148h11.229l.016-5.148a3.053,3.053,0,0,0-3.048-3.048h-.918a.784.784,0,0,1-.762-.591.784.784,0,0,1,.4-.87,2.818,2.818,0,0,0,1.54-2.629,2.852,2.852,0,0,0-2.706-2.722,2.75,2.75,0,0,0-2.1.779,2.845,2.845,0,0,0-.871,2.053,2.825,2.825,0,0,0,1.539,2.519.755.755,0,0,1,.4.87.8.8,0,0,1-.763.591h-.917A3.054,3.054,0,0,0-5886.445,43.313Zm33.267,6.407a.518.518,0,0,1-.514-.513v-5.77a4.063,4.063,0,0,1,4.059-4.059h.965a3.8,3.8,0,0,1-2.083-3.406,3.829,3.829,0,0,1,4.012-3.826,3.862,3.862,0,0,1,3.654,3.687,3.853,3.853,0,0,1-2.083,3.561h.963a4.082,4.082,0,0,1,4.075,4.043v5.77a.518.518,0,0,1-.513.513Zm-.14-21.477a.77.77,0,0,1-.777-.779V.777a.77.77,0,0,1,.777-.777h12.783a.779.779,0,0,1,.777.777V27.464a.77.77,0,0,1-.777.779Zm.777-1.556h11.229V1.555h-11.229Zm-17.729,1.556a.77.77,0,0,1-.777-.779V9.487a.769.769,0,0,1,.777-.777h12.783a.78.78,0,0,1,.779.777V27.464a.771.771,0,0,1-.779.779Zm.777-1.556h11.229V10.264h-11.229Zm-17.729,1.556a.771.771,0,0,1-.777-.779V15.4a.771.771,0,0,1,.777-.777h12.783a.78.78,0,0,1,.779.777V27.464a.771.771,0,0,1-.779.779Zm.777-1.556h11.229V16.175h-11.229Zm38.011-9.564-2.178-2.474a.87.87,0,0,1,.078-1.244.884.884,0,0,1,1.244.078l1.523,1.726,3.189-3.685a.884.884,0,0,1,1.244-.093.875.875,0,0,1,.063,1.259l-3.857,4.433a.863.863,0,0,1-.653.3A.884.884,0,0,1-5848.435,17.124Z" transform="translate(5897 6)" fill="#fff"/>
  </g>
</svg>
