<svg xmlns="http://www.w3.org/2000/svg" xmlns:xlink="http://www.w3.org/1999/xlink" width="154.708" height="30" viewBox="0 0 154.708 30">
  <defs>
    <linearGradient id="linear-gradient" x1="0.5" y1="-0.416" x2="0.5" y2="1.884" gradientUnits="objectBoundingBox">
      <stop offset="0" stop-color="#00b5ff"/>
      <stop offset="1" stop-color="#0073b9"/>
    </linearGradient>
    <linearGradient id="linear-gradient-2" x1="0.5" y1="-0.376" x2="0.5" y2="1.824" xlink:href="#linear-gradient"/>
    <linearGradient id="linear-gradient-5" x1="0.5" y1="-0.232" x2="0.5" y2="1.137" gradientUnits="objectBoundingBox">
      <stop offset="0" stop-color="#e6e6e6"/>
      <stop offset="1" stop-color="#b3b3b3"/>
    </linearGradient>
    <linearGradient id="linear-gradient-7" x1="0.5" y1="-0.2" x2="0.5" y2="1.11" xlink:href="#linear-gradient-5"/>
    <linearGradient id="linear-gradient-8" x1="0.5" y1="-0.02" x2="0.5" y2="1.285" xlink:href="#linear-gradient"/>
    <linearGradient id="linear-gradient-9" x1="0.5" y1="-1.059" x2="0.5" y2="2.855" xlink:href="#linear-gradient"/>
  </defs>
  <g id="icwt-logo" transform="translate(-812 -664.5)">
    <path id="Path_48" data-name="Path 48" d="M883.815,689.759V691.8c0,.465-.155.75-.749.75h-7.317c-.594,0-.749-.285-.749-.75v-2.042c0-.465.155-.749.749-.749h1.629v-9.875H875.8c-.594,0-.749-.285-.749-.75v-2.094c0-.465.155-.75.749-.75h7.187c.595,0,.749.285.749.75v2.094c0,.465-.155.75-.749.75h-1.551v9.875h1.629C883.66,689.01,883.815,689.294,883.815,689.759Z" transform="translate(-25.941 -4.546)" fill="url(#linear-gradient)"/>
    <path id="Path_49" data-name="Path 49" d="M903.417,692.668c-3.077,0-6.928-1.784-6.928-5.842v-6.1c0-4.059,3.852-5.842,6.928-5.842,3.206,0,6.385,1.629,6.722,4.912,0,.621-.207.75-.8.75h-2.482c-.542,0-.569-.492-.775-.8a2.726,2.726,0,0,0-2.663-1.241,2.553,2.553,0,0,0-2.869,2.585v5.378c0,1.654,1.164,2.585,2.869,2.585,1.4,0,2.508-.517,2.715-1.758.078-.517.129-.931.7-.931h2.534c.569,0,.776.258.776.879C910.139,690.574,906.623,692.668,903.417,692.668Z" transform="translate(-34.789 -4.275)" fill="url(#linear-gradient-2)"/>
    <path id="Path_50" data-name="Path 50" d="M946.627,676.291l-4.757,15.718a.724.724,0,0,1-.7.543H939a.839.839,0,0,1-.827-.595l-2.585-8.247L933,691.957a.838.838,0,0,1-.827.595H929.9a.724.724,0,0,1-.7-.543l-4.782-15.718c-.078-.311,0-.75.465-.75h2.844a.984.984,0,0,1,1.034.827l2.559,8.79,2.482-8.79c.1-.362.284-.827.879-.827h1.81c.568,0,.749.465.853.827l2.508,8.79,2.559-8.79a.963.963,0,0,1,1.034-.827h2.741C946.653,675.541,946.731,675.98,946.627,676.291Z" transform="translate(-46.279 -4.546)" fill="url(#linear-gradient)"/>
    <path id="Path_51" data-name="Path 51" d="M979.551,676.291v2.145c0,.465-.155.75-.749.75h-3.955V691.8c0,.595-.285.75-.75.75h-2.559c-.465,0-.749-.155-.749-.75V679.186h-3.981c-.595,0-.75-.285-.75-.75v-2.145c0-.465.155-.75.75-.75h12C979.4,675.541,979.551,675.826,979.551,676.291Z" transform="translate(-63.434 -4.546)" fill="url(#linear-gradient)"/>
    <path id="Path_52" data-name="Path 52" d="M1005.836,692.552h-2.715c-.568,0-.775-.155-.982-.776l-.724-2.042h-6.334l-.724,2.042c-.207.621-.414.776-.982.776h-2.714c-.569,0-.569-.414-.439-.724l5.739-15.486a1.026,1.026,0,0,1,1.06-.8H999.5c.569,0,.827.259,1.06.8l5.713,15.486C1006.405,692.138,1006.405,692.552,1005.836,692.552Zm-5.636-6.437-1.939-5.714-1.939,5.714Z" transform="translate(-73.355 -4.546)" fill="url(#linear-gradient-5)"/>
    <path id="Path_53" data-name="Path 53" d="M1036.725,681.358v5.378c0,4.058-3.878,5.817-6.954,5.817h-5.791c-.595,0-.75-.285-.75-.75V676.291c0-.465.155-.75.75-.75h5.791C1032.847,675.541,1036.725,677.325,1036.725,681.358Zm-4.059.362c0-1.629-1.189-2.585-2.9-2.585h-2.482v9.824h2.482c1.707,0,2.9-.931,2.9-2.585Z" transform="translate(-86.976 -4.546)" fill="url(#linear-gradient-5)"/>
    <path id="Path_54" data-name="Path 54" d="M1065.319,687.239c0,3.671-2.9,5.429-6.877,5.429-3.232,0-6.954-1.861-6.954-5.481,0-.595.155-.724.749-.724h2.508c.595,0,.879.077.931.724a1.78,1.78,0,0,0,.491,1.06,3.4,3.4,0,0,0,2.533.853c1.4,0,2.534-.31,2.534-1.758s-2.3-1.474-4.5-2.172c-2.611-.827-5.015-1.861-5.015-5.144,0-3.361,3.051-5.015,6.282-5.145,3.283,0,6.877,1.5,6.877,4.912,0,.621-.155.724-.75.724H1061.6c-.491,0-.569-.362-.7-.7a2.136,2.136,0,0,0-.543-.775,3.437,3.437,0,0,0-2.2-.7c-.853,0-2.275.336-2.275,1.5,0,1.577,3.8,2.146,4.834,2.559C1062.578,682.974,1065.319,683.723,1065.319,687.239Z" transform="translate(-98.611 -4.275)" fill="url(#linear-gradient-7)"/>
    <g id="Group_23" data-name="Group 23" transform="translate(812 664.5)">
      <path id="Path_55" data-name="Path 55" d="M825.792,664.548a15,15,0,0,0-11.451,22.994,1.181,1.181,0,0,0,1.834.216l1.722-1.721a1.167,1.167,0,0,0,.187-1.409,10.226,10.226,0,0,1-1.334-6.072A10.3,10.3,0,1,1,829,689.6a10.183,10.183,0,0,1-5.693-.5,1.164,1.164,0,0,0-1.245.265l-1.8,1.8a1.181,1.181,0,0,0,.342,1.9,14.946,14.946,0,0,0,6.583,1.432A15.285,15.285,0,0,0,842,679.266,15,15,0,0,0,825.792,664.548Z" transform="translate(-812 -664.5)" fill="url(#linear-gradient-8)"/>
      <circle id="Ellipse_5" data-name="Ellipse 5" cx="5" cy="5" r="5" transform="translate(10 10)" fill="url(#linear-gradient-9)"/>
    </g>
  </g>
</svg>
