<svg xmlns="http://www.w3.org/2000/svg" width="304" height="301" viewBox="0 0 304 301">
  <g id="lines" opacity="0.25">
    <g id="Group_58" data-name="Group 58" transform="translate(0)">
      <path id="Path_50" data-name="Path 50" d="M603.153,1033.3c161.411-.141,292.827-130.6,294.579-291.583h9.421c-1.752,166.18-137.389,300.859-304,301Z" transform="translate(-603.153 -741.722)" fill="#fff"/>
    </g>
    <g id="Group_59" data-name="Group 59" transform="translate(0)">
      <path id="Path_51" data-name="Path 51" d="M614.326,981.169c132.613-.146,240.6-107.207,242.349-239.447h9.436C864.36,879.161,752.143,990.459,614.326,990.6Z" transform="translate(-614.326 -741.722)" fill="#fff"/>
    </g>
    <g id="Group_60" data-name="Group 60" transform="translate(0)">
      <path id="Path_52" data-name="Path 52" d="M626.875,921.963c99.964-.146,181.4-80.649,183.143-180.241h9.436c-1.741,104.791-87.41,189.531-192.579,189.677Z" transform="translate(-626.875 -741.722)" fill="#fff"/>
    </g>
    <g id="Group_61" data-name="Group 61" transform="translate(0)">
      <path id="Path_53" data-name="Path 53" d="M638.46,867.3c69.826-.142,126.749-56.13,128.485-125.578h9.436C774.645,816.375,713.49,876.6,638.46,876.737Z" transform="translate(-638.46 -741.722)" fill="#fff"/>
    </g>
  </g>
</svg>
